<svg width="64" height="64" viewBox="0 0 64 64" fill="none" xmlns="http://www.w3.org/2000/svg">
<path d="M48.875 11.5078H51.75V14.3828C51.75 15.1453 52.0529 15.8765 52.5921 16.4157C53.1312 16.9549 53.8625 17.2578 54.625 17.2578C55.3875 17.2578 56.1188 16.9549 56.658 16.4157C57.1971 15.8765 57.5 15.1453 57.5 14.3828V11.5078H60.375C61.1375 11.5078 61.8688 11.2049 62.408 10.6657C62.9471 10.1265 63.25 9.39528 63.25 8.63279C63.25 7.87029 62.9471 7.13902 62.408 6.59985C61.8688 6.06069 61.1375 5.75779 60.375 5.75779H57.5V2.88279C57.5 2.12029 57.1971 1.38902 56.658 0.849854C56.1188 0.310686 55.3875 0.00778576 54.625 0.00778576C53.8625 0.00778576 53.1312 0.310686 52.5921 0.849854C52.0529 1.38902 51.75 2.12029 51.75 2.88279V5.75779H48.875C48.1125 5.75779 47.3812 6.06069 46.8421 6.59985C46.3029 7.13902 46 7.87029 46 8.63279C46 9.39528 46.3029 10.1265 46.8421 10.6657C47.3812 11.2049 48.1125 11.5078 48.875 11.5078ZM17.25 17.2578V46.0078C17.25 46.7703 17.5529 47.5015 18.0921 48.0407C18.6312 48.5799 19.3625 48.8828 20.125 48.8828C20.8875 48.8828 21.6188 48.5799 22.1579 48.0407C22.6971 47.5015 23 46.7703 23 46.0078V17.2578C23 16.4953 22.6971 15.764 22.1579 15.2249C21.6188 14.6857 20.8875 14.3828 20.125 14.3828C19.3625 14.3828 18.6312 14.6857 18.0921 15.2249C17.5529 15.764 17.25 16.4953 17.25 17.2578ZM59.225 23.0078C58.855 23.0832 58.5034 23.2308 58.1905 23.4422C57.8775 23.6535 57.6092 23.9244 57.401 24.2395C57.1927 24.5545 57.0486 24.9075 56.9768 25.2782C56.905 25.649 56.9069 26.0303 56.9825 26.4003C58.105 31.8519 57.4397 37.5201 55.0854 42.5636C52.731 47.6071 48.813 51.757 43.9132 54.3972C39.0133 57.0375 33.3926 58.0273 27.8855 57.2199C22.3784 56.4124 17.2785 53.8507 13.3428 49.915C9.40706 45.9793 6.84535 40.8794 6.0379 35.3723C5.23045 29.8652 6.22032 24.2445 8.86057 19.3446C11.5008 14.4447 15.6507 10.5268 20.6942 8.17245C25.7377 5.81808 31.4059 5.15277 36.8575 6.27529C37.62 6.42779 38.4119 6.27114 39.0589 5.8398C39.7059 5.40847 40.155 4.73778 40.3075 3.97529C40.46 3.21279 40.3034 2.42094 39.872 1.77394C39.4407 1.12694 38.77 0.677785 38.0075 0.525286C35.9035 0.133283 33.7647 -0.0401388 31.625 0.00778576C25.3702 0.00778576 19.2558 1.86256 14.0551 5.33756C8.8544 8.81256 4.80095 13.7517 2.40732 19.5304C0.0137027 25.3091 -0.612578 31.6679 0.60768 37.8025C1.82794 43.9372 4.83993 49.5722 9.26276 53.995C13.6856 58.4179 19.3206 61.4299 25.4553 62.6501C31.5899 63.8704 37.9487 63.2441 43.7274 60.8505C49.5061 58.4568 54.4452 54.4034 57.9202 49.2027C61.3952 44.002 63.25 37.8876 63.25 31.6328C63.2561 29.5084 63.0442 27.3889 62.6175 25.3078C62.5487 24.9326 62.4058 24.5748 62.1973 24.2554C61.9888 23.9359 61.7188 23.6612 61.4031 23.4471C61.0873 23.233 60.7321 23.084 60.3582 23.0085C59.9843 22.9331 59.5991 22.9329 59.225 23.0078ZM28.75 23.0078V25.8828C28.7627 28.0104 29.5614 30.0583 30.9925 31.6328C29.5614 33.2072 28.7627 35.2551 28.75 37.3828V40.2578C28.75 42.5453 29.6587 44.7391 31.2762 46.3566C32.8937 47.9741 35.0875 48.8828 37.375 48.8828H40.25C42.5375 48.8828 44.7313 47.9741 46.3488 46.3566C47.9663 44.7391 48.875 42.5453 48.875 40.2578V37.3828C48.8623 35.2551 48.0637 33.2072 46.6325 31.6328C48.0637 30.0583 48.8623 28.0104 48.875 25.8828V23.0078C48.875 20.7203 47.9663 18.5265 46.3488 16.909C44.7313 15.2915 42.5375 14.3828 40.25 14.3828H37.375C35.0875 14.3828 32.8937 15.2915 31.2762 16.909C29.6587 18.5265 28.75 20.7203 28.75 23.0078ZM43.125 40.2578C43.125 41.0203 42.8221 41.7515 42.2829 42.2907C41.7438 42.8299 41.0125 43.1328 40.25 43.1328H37.375C36.6125 43.1328 35.8812 42.8299 35.3421 42.2907C34.8029 41.7515 34.5 41.0203 34.5 40.2578V37.3828C34.5 36.6203 34.8029 35.889 35.3421 35.3499C35.8812 34.8107 36.6125 34.5078 37.375 34.5078H40.25C41.0125 34.5078 41.7438 34.8107 42.2829 35.3499C42.8221 35.889 43.125 36.6203 43.125 37.3828V40.2578ZM43.125 23.0078V25.8828C43.125 26.6453 42.8221 27.3765 42.2829 27.9157C41.7438 28.4549 41.0125 28.7578 40.25 28.7578H37.375C36.6125 28.7578 35.8812 28.4549 35.3421 27.9157C34.8029 27.3765 34.5 26.6453 34.5 25.8828V23.0078C34.5 22.2453 34.8029 21.514 35.3421 20.9749C35.8812 20.4357 36.6125 20.1328 37.375 20.1328H40.25C41.0125 20.1328 41.7438 20.4357 42.2829 20.9749C42.8221 21.514 43.125 22.2453 43.125 23.0078Z" fill="white"/>
</svg>
