<svg width="96" height="56" viewBox="0 0 96 56" fill="none" xmlns="http://www.w3.org/2000/svg">
<g clip-path="url(#clip0_991_5652)">
<path d="M0 28.2127C0 24.4144 1.91151 22.5 4.92689 22.5C7.01371 22.5 8.59153 23.3812 9.02921 25.3721L9.09933 25.6917L7.31114 26.0259L7.24102 25.7378C6.90732 24.4007 6.04889 23.8842 4.89183 23.8842C3.26082 23.8842 1.9635 25.1154 1.9635 28.1079C1.9635 30.9339 3.1387 32.119 4.78664 32.119C5.96184 32.119 7.32928 31.5877 7.32928 29.7184V29.3999H4.75158V28.0775H9.11747V33.3198H7.55658L7.45139 32.0278C6.87226 33.0756 5.73333 33.5021 4.40095 33.5021C1.7362 33.5 0 31.6621 0 28.2127Z" fill="white"/>
<path d="M15.8482 32.5884C15.3041 33.0892 14.586 33.4853 13.4289 33.5C11.7809 33.5 10.7109 32.5423 10.7109 31.3121C10.7109 29.9751 11.9913 29.3213 13.1133 29.0478L15.8313 28.3793V28.1058C15.8313 27.255 15.2171 26.8296 14.2535 26.8296C13.3588 26.8296 12.6406 27.3157 12.325 27.8627L12.2718 27.9539L10.8863 27.3157L10.9745 27.1638C11.3602 26.4796 12.4302 25.5376 14.4106 25.5376C16.3911 25.5376 17.6545 26.4041 17.6545 27.9685V31.9649C17.6545 32.3442 17.6727 32.8461 17.7597 33.1804L17.7948 33.3177H15.9715L15.9534 33.2412C15.9002 33.0285 15.8651 32.8157 15.8482 32.5884ZM13.9016 32.2992C14.7081 32.2992 15.4275 31.8884 15.8301 31.4483V29.534L13.9367 30.0359C13.2185 30.2329 12.5862 30.5525 12.5862 31.2063C12.5862 31.8601 13.0952 32.3002 13.9016 32.3002V32.2992Z" fill="white"/>
<path d="M28.2422 26.906C27.524 26.906 26.7696 27.3314 26.3488 27.696V33.3176H24.5256V28.0753C24.5256 27.3 24.0698 26.9049 23.1932 26.9049C22.475 26.9049 21.7206 27.3303 21.2998 27.695V33.3165H19.4766V25.7209H21.2128V26.5571C21.879 25.9493 22.8256 25.5386 23.8074 25.5386C25.0346 25.5386 25.7709 26.0248 26.1215 26.6933C26.7877 26.009 27.8045 25.5386 28.8564 25.5386C30.6627 25.5386 31.399 26.5874 31.399 27.7264V33.3176H29.5758V28.0753C29.5758 27.3 29.12 26.9049 28.2434 26.9049L28.2422 26.906Z" fill="white"/>
<path d="M35.1326 32.6188L34.9573 33.3177H33.4146V22.6824H35.2378V26.3445C35.7637 25.8279 36.5702 25.5387 37.4117 25.5387C39.4102 25.5387 40.7608 26.8307 40.7608 29.4136C40.7608 31.9964 39.3401 33.5011 37.3416 33.5011C36.4469 33.5011 35.6235 33.1815 35.1326 32.6199V32.6188ZM36.9909 32.2238C38.0259 32.2238 38.9024 31.4034 38.9024 29.4586C38.9024 27.5139 37.9908 26.8296 36.9559 26.8296C36.2546 26.8296 35.6755 27.1335 35.2378 27.5285V31.4945C35.6936 31.9053 36.2897 32.2238 36.9909 32.2238Z" fill="white"/>
<path d="M42.2671 22.6824H44.0903V33.3177H42.2671V22.6824Z" fill="white"/>
<path d="M45.7036 29.6261C45.7036 27.2256 47.0892 25.5386 49.5085 25.5386C51.2096 25.5386 52.9966 26.4198 52.9966 29.1546V29.8682H47.4918V29.9593C47.4918 31.4336 48.3865 32.254 49.5774 32.254C50.3488 32.254 50.9981 31.9806 51.4357 31.2963L51.5409 31.1287L52.9785 31.661L52.8914 31.8129C52.2422 32.9372 51.0851 33.4999 49.5254 33.4999C47.3165 33.4999 45.7036 32.1472 45.7036 29.6251V29.6261ZM51.2786 28.8203V28.7135C51.2786 27.3303 50.4371 26.8138 49.5085 26.8138C48.58 26.8138 47.6671 27.4215 47.5099 28.8193H51.2798L51.2786 28.8203Z" fill="white"/>
<path d="M57.8349 22.6824H60.4827L63.9539 33.3177H62.0073L61.1477 30.5222H57.0804L56.2208 33.3177H54.3794L57.8349 22.6824ZM60.7281 29.2155L59.1153 23.989L57.5024 29.2155H60.7281Z" fill="#fff"/>
<path d="M63.4971 25.7209H65.3203L66.7579 31.1455L68.3538 25.7209H70.0719L71.6328 31.1455L73.1235 25.7209H74.7896L72.5275 33.3176H70.7212L69.1433 27.9088L67.5474 33.3176H65.7592L63.4971 25.7209Z" fill="#fff"/>
<path d="M80.17 32.5884C79.6259 33.0892 78.9077 33.4853 77.7507 33.5C76.1027 33.5 75.0327 32.5423 75.0327 31.3121C75.0327 29.9751 76.3119 29.3213 77.4351 29.0478L80.1531 28.3793V28.1058C80.1531 27.255 79.5389 26.8296 78.5752 26.8296C77.6817 26.8296 76.9624 27.3157 76.6468 27.8627L76.5948 27.9539L75.2092 27.3157L75.2975 27.1638C75.6832 26.4796 76.7532 25.5376 78.7336 25.5376C80.7141 25.5376 81.9775 26.4041 81.9775 27.9685V31.9649C81.9775 32.3442 81.9956 32.8461 82.0827 33.1804L82.1178 33.3177H80.2945L80.2764 33.2412C80.2244 33.0285 80.1893 32.8157 80.1712 32.5884H80.17ZM78.2246 32.2992C79.031 32.2992 79.7504 31.8884 80.1531 31.4483V29.534L78.2597 30.0359C77.5403 30.2329 76.9092 30.5525 76.9092 31.2063C76.9092 31.8601 77.4182 32.3002 78.2246 32.3002V32.2992Z" fill="#fff"/>
<path d="M83.7461 25.7209H85.4472V27.1491C86.6043 25.9787 87.6392 25.6297 88.5158 25.614V27.0883C87.2886 27.0883 86.3238 27.6814 85.5706 28.2734V33.3176H83.7473V25.7209H83.7461Z" fill="#fff"/>
<path d="M88.707 29.6261C88.707 27.2256 90.0926 25.5386 92.5119 25.5386C94.2131 25.5386 96.0012 26.4198 96.0012 29.1546V29.8682H90.4964V29.9593C90.4964 31.4336 91.3911 32.254 92.5833 32.254C93.3546 32.254 94.0039 31.9806 94.4416 31.2963L94.5468 31.1287L95.9843 31.661L95.8973 31.8129C95.248 32.9372 94.0909 33.4999 92.5313 33.4999C90.3223 33.4999 88.7095 32.1472 88.7095 29.6251L88.707 29.6261ZM94.282 28.8203V28.7135C94.282 27.3303 93.4405 26.8138 92.5107 26.8138C91.581 26.8138 90.6693 27.4215 90.5121 28.8193H94.282V28.8203Z" fill="#fff"/>
</g>
<defs>
<clipPath id="clip0_991_5652">
<rect width="96" height="11" fill="white" transform="translate(0 22.5)"/>
</clipPath>
</defs>
</svg>
