<svg width="96" height="56" viewBox="0 0 96 56" fill="none" xmlns="http://www.w3.org/2000/svg">
<g clip-path="url(#clip0_991_5598)">
<mask id="mask0_991_5598" style="mask-type:luminance" maskUnits="userSpaceOnUse" x="0" y="14" width="96" height="28">
<path d="M0 14H96V42H0V14Z" fill="white"/>
</mask>
<g mask="url(#mask0_991_5598)">
<path d="M36.7826 21.1618C36.7632 21.203 36.7354 21.2396 36.7011 21.2691C36.6669 21.2986 36.6268 21.3203 36.5837 21.3328L34.7665 21.8828C34.5441 21.9484 34.4288 21.8828 34.3379 21.6557C34.2335 21.2056 33.9727 20.8094 33.604 20.5405C33.2353 20.2717 32.7836 20.1484 32.3326 20.1936C30.6221 20.1936 30.0367 21.2278 30.0367 22.6204V25.8242C30.0367 27.2168 30.614 28.251 32.3326 28.251C33.7469 28.251 34.4704 27.579 34.4704 26.1165V25.679H32.6232C32.5878 25.682 32.5521 25.6768 32.519 25.6638C32.4858 25.6508 32.4559 25.6303 32.4316 25.6038C32.4074 25.5773 32.3893 25.5456 32.3787 25.5109C32.3682 25.4763 32.3654 25.4396 32.3707 25.4038V23.6678C32.3663 23.632 32.3696 23.5957 32.3804 23.5615C32.3912 23.5272 32.4094 23.4958 32.4335 23.4695C32.4576 23.4432 32.4871 23.4227 32.5199 23.4094C32.5527 23.3961 32.588 23.3904 32.6232 23.3926H36.7376C36.7727 23.3872 36.8086 23.3899 36.8425 23.4007C36.8764 23.4115 36.9076 23.43 36.9335 23.4548C36.9594 23.4796 36.9795 23.51 36.9923 23.5439C37.005 23.5777 37.0101 23.6141 37.0071 23.6503V26.298C37.0071 28.8294 35.1857 30.7369 32.3549 30.7369C28.9982 30.7369 27.4292 28.7073 27.4292 25.9358V22.5504C27.4292 19.7613 28.9982 17.7493 32.3549 17.7493C35.0699 17.7493 36.2978 19.3295 36.789 20.9137M46.0249 24.0637V30.2762C46.0268 30.3105 46.0215 30.3449 46.0095 30.377C45.9974 30.4091 45.9789 30.4383 45.9551 30.4626C45.9313 30.487 45.9027 30.5059 45.8712 30.5181C45.8398 30.5304 45.8061 30.5358 45.7725 30.5339H43.9167C43.8819 30.5377 43.8466 30.5338 43.8134 30.5224C43.7801 30.5111 43.7497 30.4925 43.7241 30.4681C43.6985 30.4436 43.6784 30.4138 43.6651 30.3807C43.6518 30.3476 43.6457 30.312 43.6471 30.2762V29.259C43.3836 29.7118 43.0075 30.0855 42.557 30.3422C42.1065 30.599 41.5975 30.7297 41.0816 30.7211C39.3288 30.7211 38.1956 29.5688 38.1956 27.7969C38.1956 26.025 39.2602 25.0406 41.8557 24.8551C42.4164 24.8115 42.9796 24.8115 43.5404 24.8551V24.1481C43.5404 23.2185 43.069 22.8387 42.2577 22.8387C41.9759 22.798 41.6893 22.8647 41.4526 23.0261C41.216 23.1876 41.0459 23.4324 40.9749 23.7137C40.8892 23.9189 40.8254 23.9539 40.6372 23.9014L38.7815 23.4201C38.5976 23.3676 38.5804 23.2631 38.6147 23.1279C38.8672 21.766 40.1328 20.7654 42.3562 20.7654C44.6993 20.7654 46.0163 21.9029 46.0163 24.0388M43.5366 27.2907V26.4223C43.0414 26.404 42.5456 26.4216 42.0528 26.4748C41.1121 26.5925 40.6033 26.8851 40.6033 27.6271C40.6033 28.2948 41.0319 28.657 41.7665 28.657C42.1653 28.6654 42.5555 28.5384 42.8759 28.2958C43.1963 28.0533 43.4287 27.7089 43.5366 27.317M52.7211 20.7916C53.2403 20.7821 53.7482 20.9478 54.1657 21.2632C54.5832 21.5785 54.8869 22.0258 55.0298 22.5355C55.7224 21.5013 56.565 20.7895 57.7449 20.7895C59.3782 20.7895 60.3104 22.0989 60.3104 24.0935V30.2762C60.3077 30.3137 60.2977 30.3503 60.2808 30.3838C60.264 30.4172 60.2407 30.4469 60.2124 30.471C60.184 30.495 60.1512 30.513 60.1159 30.5238C60.0806 30.5346 60.0436 30.5381 60.0069 30.5339H58.0702C58.0335 30.5381 57.9964 30.5347 57.9611 30.5239C57.9258 30.5132 57.893 30.4952 57.8646 30.4711C57.8363 30.447 57.813 30.4174 57.7962 30.3839C57.7793 30.3504 57.7693 30.3138 57.7667 30.2762V24.545C57.7667 23.67 57.3947 23.1655 56.7381 23.1655C56.0816 23.1655 55.5411 23.7548 55.2887 24.6495V30.2758C55.291 30.3088 55.2867 30.3419 55.2759 30.3731C55.2652 30.4043 55.2482 30.4328 55.2261 30.457C55.204 30.4812 55.1773 30.5005 55.1476 30.5136C55.1179 30.5268 55.0858 30.5335 55.0534 30.5335H52.9555C52.8059 30.5335 52.7373 30.4289 52.7373 30.2758V24.5445C52.7373 23.6695 52.3653 23.1651 51.7087 23.1651C51.0522 23.1651 50.4946 23.785 50.2593 24.6666V30.2753C50.2626 30.31 50.2584 30.345 50.2469 30.3778C50.2354 30.4106 50.2169 30.4404 50.1927 30.4651C50.1686 30.4897 50.1394 30.5086 50.1073 30.5203C50.0751 30.5321 50.0408 30.5364 50.0068 30.533H47.9497C47.9157 30.5364 47.8814 30.5321 47.8493 30.5203C47.8171 30.5086 47.7879 30.4897 47.7638 30.4651C47.7396 30.4404 47.7212 30.4106 47.7096 30.3778C47.6981 30.345 47.6939 30.31 47.6972 30.2753V21.241C47.6971 21.2079 47.7037 21.1752 47.7166 21.1448C47.7295 21.1145 47.7484 21.0872 47.7721 21.0646C47.7958 21.0421 47.8238 21.0248 47.8543 21.0138C47.8849 21.0028 47.9173 20.9984 47.9497 21.0008H49.9211C49.9536 20.9977 49.9863 21.0016 50.0172 21.0124C50.048 21.0231 50.0763 21.0404 50.1001 21.0631C50.124 21.0857 50.1428 21.1133 50.1555 21.144C50.1682 21.1746 50.1743 21.2077 50.1736 21.241V22.3233C50.4452 21.8727 50.8213 21.4973 51.2687 21.2302C51.7162 20.9632 52.2211 20.8127 52.739 20.7921M70.9156 21.0016C70.967 21.2243 70.9156 21.3954 70.6975 21.4391L68.9103 21.9716C68.87 21.9914 68.8258 22.0011 68.7811 22C68.7365 21.9989 68.6927 21.987 68.6535 21.9652C68.6142 21.9435 68.5806 21.9125 68.5553 21.8749C68.5301 21.8373 68.514 21.7941 68.5083 21.7489C68.2511 20.8739 67.8157 20.1993 66.5672 20.1993C65.032 20.1993 64.5447 21.2335 64.5447 22.6261V25.8299C64.5447 27.2225 65.1019 28.2567 66.5672 28.2567C67.8842 28.2567 68.3887 27.4972 68.5897 26.5505C68.5942 26.5042 68.6097 26.4597 68.635 26.421C68.6603 26.3823 68.6945 26.3506 68.7347 26.3286C68.7748 26.3066 68.8197 26.295 68.8652 26.2948C68.9108 26.2947 68.9557 26.306 68.996 26.3278L70.7875 26.9215C70.8308 26.9342 70.8711 26.9559 70.9058 26.9852C70.9406 27.0146 70.9691 27.0508 70.9895 27.0919C71.01 27.1329 71.022 27.1778 71.0247 27.2237C71.0275 27.2697 71.021 27.3157 71.0056 27.359C70.577 29.2183 69.2694 30.7277 66.5372 30.7277C63.4716 30.7277 61.9193 28.6981 61.9193 25.9266V22.5504C61.9193 19.7613 63.5012 17.7493 66.5372 17.7493C69.2009 17.7493 70.4497 19.193 70.9199 21.0183M79.8875 24.0668V30.2793C79.8894 30.3136 79.8841 30.348 79.8721 30.3801C79.8601 30.4122 79.8415 30.4414 79.8177 30.4657C79.7939 30.49 79.7653 30.5089 79.7338 30.5212C79.7024 30.5335 79.6687 30.5389 79.6351 30.537H77.7793C77.7445 30.5408 77.7092 30.5368 77.676 30.5255C77.6428 30.5141 77.6123 30.4956 77.5867 30.4711C77.5611 30.4467 77.541 30.4169 77.5277 30.3838C77.5145 30.3507 77.5083 30.315 77.5097 30.2793V29.259C77.2462 29.7118 76.8701 30.0855 76.4196 30.3422C75.9691 30.599 75.4602 30.7297 74.9443 30.7211C73.1914 30.7211 72.0625 29.5688 72.0625 27.7969C72.0625 26.025 73.1228 25.0406 75.7183 24.8551C76.2805 24.8114 76.8451 24.8114 77.4073 24.8551V24.1481C77.4073 23.2185 76.9329 22.8387 76.1246 22.8387C75.8431 22.8003 75.5576 22.868 75.3214 23.0291C75.0853 23.1902 74.9148 23.4335 74.8418 23.7137C74.7604 23.9189 74.6923 23.9539 74.5041 23.9014L72.6526 23.4201C72.4645 23.3676 72.4473 23.2631 72.4812 23.1279C72.7336 21.766 73.9992 20.7654 76.2266 20.7654C78.5696 20.7654 79.8824 21.9029 79.8824 24.0388M77.4069 27.2907V26.4223C76.9117 26.4039 76.4159 26.4214 75.9231 26.4748C74.9803 26.5925 74.4737 26.8851 74.4737 27.6271C74.4737 28.2948 74.9023 28.657 75.6368 28.657C76.0355 28.6647 76.4253 28.5373 76.7456 28.2949C77.0658 28.0524 77.2983 27.7086 77.4069 27.317M87.1087 21.1714V23.0133C87.1087 23.236 87.023 23.323 86.8052 23.323H86.5318C85.1848 23.323 84.394 23.943 84.1245 24.9772V30.2762C84.1268 30.3081 84.1228 30.3402 84.1129 30.3705C84.1029 30.4008 84.0871 30.4288 84.0664 30.4528C84.0456 30.4768 84.0204 30.4964 83.9922 30.5103C83.964 30.5242 83.9333 30.5322 83.902 30.5339H81.7643C81.733 30.5322 81.7023 30.5242 81.6741 30.5103C81.6459 30.4964 81.6207 30.4768 81.5999 30.4528C81.5792 30.4288 81.5634 30.4008 81.5534 30.3705C81.5435 30.3402 81.5395 30.3081 81.5418 30.2762V21.241C81.5404 21.2075 81.5461 21.1741 81.5585 21.1431C81.5709 21.1121 81.5897 21.0842 81.6137 21.0614C81.6377 21.0385 81.6663 21.0213 81.6975 21.0108C81.7287 21.0004 81.7617 20.9969 81.7943 21.0008H83.7182C83.9192 21.0008 83.9706 21.136 83.9706 21.276V22.5504C84.2176 22.0299 84.6072 21.5937 85.0921 21.2947C85.5771 20.9956 86.1366 20.8466 86.7028 20.8656C87.0405 20.8656 87.1314 20.9181 87.1314 21.1578M90.4195 26.5391V26.9013C90.4195 27.901 90.9282 28.6036 92.1299 28.6036C93.3317 28.6036 93.6137 28.1661 93.9171 27.5908C94.0667 27.3331 94.1353 27.2986 94.4044 27.4158L95.733 28.1053C96.0069 28.2449 96.0236 28.3805 95.9044 28.6378C95.3314 29.9472 93.8991 30.7198 92.1119 30.7198C89.4119 30.7198 87.9976 29.0875 87.9976 26.8484V24.6675C87.9976 22.4852 89.3262 20.7916 92.0939 20.7916C94.7237 20.7916 96.0064 22.4979 96.0064 24.6154V26.13C96.0064 26.3877 95.9207 26.5675 95.5779 26.5675L90.4195 26.5391ZM90.4195 24.5266V24.8543H93.6733V24.527C93.6936 24.305 93.6658 24.0811 93.5918 23.8713C93.5179 23.6615 93.3995 23.4708 93.2453 23.3129C93.091 23.155 92.9046 23.0338 92.6992 22.9577C92.4939 22.8816 92.2746 22.8527 92.0571 22.8728C91.8385 22.8524 91.6182 22.881 91.4115 22.9566C91.2049 23.0323 91.017 23.1531 90.861 23.3107C90.705 23.4684 90.5846 23.6589 90.5084 23.869C90.4321 24.0791 90.4017 24.3032 90.4195 24.5266Z" fill="white"/>
<path d="M11.66 14H0.346293C0.30098 13.9996 0.256026 14.0083 0.214032 14.0256C0.172037 14.043 0.133834 14.0687 0.101632 14.1013C0.0694299 14.1338 0.0438676 14.1726 0.0264231 14.2153C0.00897848 14.258 -2.26541e-06 14.3038 4.28645e-10 14.35V31.1456C0.00136357 34.0237 1.12233 36.7835 3.11643 38.8181C5.11054 40.8527 7.81454 41.9956 10.634 41.9956H11.66C14.4789 41.9956 17.1824 40.8525 19.1757 38.8178C21.169 36.783 22.2888 34.0232 22.2888 31.1456V24.8509C22.2888 23.4261 22.0139 22.0152 21.4797 20.6988C20.9456 19.3824 20.1627 18.1863 19.1757 17.1788C18.1887 16.1713 17.017 15.3721 15.7274 14.8268C14.4379 14.2815 13.0558 14.0009 11.66 14.0009M18.8734 31.3281C18.8734 35.4135 15.9359 38.4996 11.3608 38.4996C5.94356 38.4996 3.41193 35.2183 3.41193 30.7392V25.27C3.41193 20.7638 5.94313 17.4878 11.3523 17.4878C15.7349 17.4878 17.7231 20.0454 18.5143 22.6035C18.5448 22.6713 18.5606 22.7451 18.5606 22.8198C18.5606 22.8945 18.5448 22.9683 18.5144 23.0362C18.4839 23.1041 18.4394 23.1645 18.384 23.2133C18.3286 23.262 18.2635 23.298 18.1933 23.3188L15.2515 24.1938C14.9009 24.3027 14.7085 24.1938 14.6018 23.8315C14.1359 22.3038 13.1566 21.469 11.3608 21.469C8.58148 21.469 7.65789 23.1363 7.65789 25.3973V30.5773C7.65789 32.8296 8.58148 34.5056 11.3608 34.5056C13.6482 34.5056 14.8456 33.4189 14.8456 31.0573V30.3809H11.78C11.7218 30.389 11.6626 30.3833 11.607 30.3641C11.5514 30.345 11.5009 30.313 11.4594 30.2707C11.4179 30.2283 11.3865 30.1767 11.3678 30.12C11.3491 30.0632 11.3435 30.0028 11.3514 29.9434V27.0769C11.3467 27.0182 11.3546 26.9592 11.3745 26.904C11.3944 26.8488 11.4258 26.7986 11.4666 26.757C11.5074 26.7154 11.5565 26.6833 11.6106 26.663C11.6647 26.6427 11.7225 26.6346 11.78 26.6394H18.4371C18.4932 26.6319 18.5502 26.6374 18.604 26.6552C18.6578 26.6731 18.707 26.703 18.7481 26.7427C18.7891 26.7824 18.821 26.831 18.8413 26.8849C18.8617 26.9387 18.87 26.9966 18.8657 27.0541L18.8734 31.3281Z" fill="white"/>
<path d="M29.9388 34.2479C29.9437 34.2566 29.9465 34.2663 29.9472 34.2763C29.9478 34.2862 29.9462 34.2962 29.9425 34.3055C29.9388 34.3147 29.933 34.323 29.9257 34.3296C29.9184 34.3362 29.9097 34.3411 29.9002 34.3438L29.6002 34.4396C29.5531 34.4396 29.5274 34.4396 29.5064 34.4002C29.4632 34.2305 29.3628 34.0819 29.2227 33.9805C29.0827 33.8791 28.9121 33.8314 28.7409 33.8459C28.6246 33.8297 28.5062 33.8411 28.395 33.8794C28.2838 33.9176 28.1827 33.9816 28.0997 34.0663C28.0167 34.151 27.954 34.2542 27.9166 34.3678C27.8791 34.4813 27.8679 34.6022 27.8838 34.7209V35.8776C27.8679 35.9963 27.8791 36.1172 27.9166 36.2308C27.954 36.3443 28.0167 36.4475 28.0997 36.5322C28.1827 36.6169 28.2838 36.6809 28.395 36.7191C28.5062 36.7574 28.6246 36.7688 28.7409 36.7526C29.224 36.7526 29.5407 36.5256 29.5407 36.015V35.5775H28.8399C28.8014 35.5775 28.7799 35.5775 28.7799 35.5119V35.2695C28.7799 35.2258 28.7799 35.2039 28.8399 35.2039H29.926C29.9349 35.2025 29.944 35.2033 29.9527 35.206C29.9613 35.2088 29.9692 35.2135 29.9758 35.2198C29.9824 35.2261 29.9875 35.2338 29.9907 35.2425C29.994 35.2511 29.9953 35.2603 29.9945 35.2695V36.0728C29.996 36.2359 29.9637 36.3975 29.8997 36.5469C29.8357 36.6964 29.7415 36.8303 29.6232 36.94C29.5049 37.0497 29.3652 37.1325 29.2133 37.1832C29.0614 37.2338 28.9007 37.2511 28.7418 37.2339C28.567 37.2548 28.3898 37.2356 28.2233 37.1777C28.0567 37.1197 27.9049 37.0244 27.7791 36.8989C27.6532 36.7733 27.5565 36.6206 27.4959 36.4519C27.4354 36.2832 27.4125 36.1029 27.4291 35.924V34.699C27.4126 34.5202 27.4355 34.3399 27.4961 34.1713C27.5567 34.0026 27.6534 33.85 27.7793 33.7245C27.9051 33.5989 28.0569 33.5037 28.2234 33.4458C28.3899 33.3878 28.5671 33.3686 28.7418 33.3896C29.0064 33.3681 29.2701 33.4406 29.4882 33.5949C29.7064 33.7492 29.8656 33.9757 29.9388 34.2361M32.2476 36.3226V35.8851C32.0454 35.872 31.8425 35.872 31.6403 35.8851C31.264 35.9288 31.0373 36.064 31.0373 36.3825C31.0324 36.4493 31.0427 36.5164 31.0672 36.5785C31.0918 36.6407 31.13 36.6962 31.1789 36.7409C31.2278 36.7856 31.2861 36.8182 31.3493 36.8362C31.4125 36.8543 31.4789 36.8573 31.5434 36.8449C31.6993 36.8433 31.8508 36.7922 31.977 36.6989C32.1032 36.6055 32.1979 36.4745 32.248 36.3239M32.6766 35.2065V37.114C32.6766 37.1534 32.6766 37.1709 32.6123 37.1709H32.3123C32.2694 37.1709 32.248 37.1709 32.248 37.114V36.7518C32.1658 36.8937 32.0489 37.0114 31.9087 37.0933C31.7685 37.1752 31.6098 37.2185 31.4483 37.219C31.3378 37.2306 31.2262 37.2178 31.121 37.1817C31.0157 37.1456 30.9193 37.0869 30.8381 37.0096C30.7569 36.9322 30.6928 36.8381 30.6502 36.7334C30.6076 36.6287 30.5875 36.5159 30.5911 36.4026C30.5911 35.8921 30.9288 35.6125 31.5876 35.5604C31.8025 35.5453 32.0181 35.5453 32.233 35.5604V35.2389C32.233 34.8723 32.0234 34.7196 31.6857 34.7196C31.5655 34.6992 31.4422 34.7256 31.3401 34.7934C31.238 34.8613 31.1645 34.9658 31.1341 35.0862C31.1341 35.1343 31.0998 35.1387 31.0484 35.1299L30.7578 35.0468C30.7107 35.0468 30.6978 35.0118 30.7107 34.9724C30.8003 34.5883 31.1393 34.3394 31.6964 34.3394C32.2536 34.3394 32.6715 34.6189 32.6715 35.2144M34.6382 34.3328C34.7865 34.3297 34.9316 34.3774 35.0502 34.4684C35.1687 34.5594 35.254 34.6883 35.2922 34.8346C35.3714 34.6883 35.4862 34.5653 35.6256 34.4774C35.7649 34.3895 35.924 34.3397 36.0877 34.3328C36.1921 34.3337 36.2951 34.3572 36.3899 34.4016C36.4848 34.4461 36.5694 34.5105 36.6381 34.5907C36.7068 34.671 36.7581 34.7651 36.7886 34.867C36.819 34.9689 36.8281 35.0763 36.815 35.182V37.107C36.815 37.1508 36.7893 37.1683 36.7464 37.1683H36.4515C36.4044 37.1683 36.383 37.1683 36.383 37.107V35.2695C36.383 34.9291 36.2334 34.7445 35.9544 34.7445C35.8151 34.7608 35.6838 34.8196 35.5777 34.9133C35.4717 35.007 35.3958 35.1311 35.3599 35.2695V37.1158C35.3599 37.1595 35.3599 37.177 35.2999 37.177H34.9721C34.9249 37.177 34.9121 37.177 34.9121 37.1158V35.2695C34.9121 34.9291 34.7668 34.7445 34.4835 34.7445C34.3456 34.7648 34.2163 34.8251 34.111 34.9182C34.0056 35.0112 33.9286 35.1331 33.8891 35.2695V37.0939C33.8891 37.1376 33.8891 37.1551 33.8291 37.1551H33.5042C33.457 37.1551 33.4442 37.1551 33.4442 37.0939V34.44C33.4442 34.405 33.4442 34.3831 33.5042 34.3831H33.8205C33.8676 34.3831 33.8805 34.405 33.8805 34.44V34.8066C33.9577 34.6682 34.068 34.5519 34.2011 34.4688C34.3342 34.3856 34.4857 34.3382 34.6416 34.3311M38.0364 35.4616V36.1078C38.0302 36.2009 38.0435 36.2944 38.0753 36.3819C38.1072 36.4694 38.1569 36.549 38.2211 36.6155C38.2854 36.6819 38.3628 36.7337 38.4481 36.7673C38.5335 36.8009 38.6248 36.8156 38.7162 36.8104C39.1096 36.8104 39.3449 36.5746 39.3449 36.1078V35.4572C39.3449 34.9943 39.1096 34.7458 38.7162 34.7458C38.6251 34.7437 38.5346 34.7611 38.4505 34.7968C38.3664 34.8325 38.2905 34.8858 38.2277 34.9532C38.1649 35.0206 38.1166 35.1006 38.0859 35.1881C38.0552 35.2757 38.0427 35.3688 38.0493 35.4616M38.0493 33.3751V34.7677C38.133 34.6283 38.2517 34.5143 38.3931 34.4374C38.5344 34.3605 38.6933 34.3235 38.8533 34.3302C38.986 34.3281 39.1175 34.3548 39.2392 34.4088C39.3609 34.4627 39.4699 34.5425 39.559 34.6429C39.648 34.7433 39.7151 34.8619 39.7556 34.9909C39.7961 35.1199 39.8092 35.2562 39.794 35.3907V36.1633C39.8088 36.299 39.7948 36.4364 39.753 36.5661C39.7111 36.6957 39.6425 36.8147 39.5516 36.9149C39.4607 37.0151 39.3498 37.0941 39.2264 37.1467C39.1029 37.1992 38.9698 37.224 38.8362 37.2194C38.6776 37.2246 38.5205 37.1868 38.3808 37.11C38.2411 37.0331 38.1238 36.92 38.0407 36.7819V37.1048C38.0407 37.1442 38.0107 37.1573 37.9807 37.1573H37.6644C37.6259 37.1573 37.6044 37.1573 37.6044 37.1048V33.3751C37.6038 33.3675 37.6048 33.3598 37.6073 33.3526C37.6099 33.3454 37.614 33.3389 37.6193 33.3334C37.6246 33.328 37.631 33.3238 37.6381 33.3212C37.6451 33.3186 37.6527 33.3176 37.6601 33.3183H37.9979C38.0364 33.3183 38.0493 33.3183 38.0493 33.3751ZM40.9396 33.3751V37.107C40.9396 37.1508 40.9396 37.1683 40.8796 37.1683H40.5548C40.5033 37.1683 40.4905 37.1683 40.4905 37.107V33.3751C40.4905 33.3358 40.4905 33.3139 40.5548 33.3139H40.8796C40.8879 33.3123 40.8963 33.3128 40.9043 33.3153C40.9123 33.3179 40.9195 33.3223 40.9255 33.3284C40.9314 33.3344 40.9357 33.3418 40.9382 33.35C40.9407 33.3581 40.9412 33.3667 40.9396 33.3751ZM42.138 34.4426V37.1114C42.138 37.1508 42.138 37.1683 42.0822 37.1683H41.7574C41.7059 37.1683 41.6931 37.1683 41.6931 37.1114V34.4426C41.6931 34.4033 41.6931 34.3858 41.7574 34.3858H42.0822C42.1251 34.3858 42.138 34.3858 42.138 34.4426ZM42.138 33.3926V33.8813C42.138 33.9294 42.138 33.9557 42.0651 33.9557H41.7651C41.7552 33.9572 41.7451 33.9563 41.7356 33.953C41.7261 33.9498 41.7175 33.9444 41.7104 33.9372C41.7033 33.9299 41.698 33.9211 41.6948 33.9114C41.6917 33.9017 41.6908 33.8914 41.6922 33.8813V33.3926C41.6908 33.3825 41.6917 33.3722 41.6948 33.3625C41.698 33.3528 41.7033 33.344 41.7104 33.3368C41.7175 33.3296 41.7261 33.3241 41.7356 33.3209C41.7451 33.3177 41.7552 33.3168 41.7651 33.3183H42.0651C42.1208 33.3183 42.138 33.3445 42.138 33.3926ZM43.3564 35.2914V37.1114C43.3564 37.1508 43.3564 37.1683 43.3007 37.1683H42.993C42.9415 37.1683 42.9287 37.1683 42.9287 37.1114V34.44C42.9287 34.405 42.9287 34.3831 42.9887 34.3831H43.305C43.3521 34.3831 43.365 34.405 43.365 34.44V34.8066C43.4588 34.6618 43.586 34.5427 43.7355 34.4598C43.8849 34.3768 44.052 34.3326 44.2221 34.3311C44.3368 34.3279 44.4507 34.3504 44.556 34.397C44.6612 34.4435 44.7552 34.513 44.8314 34.6005C44.9076 34.688 44.9641 34.7915 44.997 34.9036C45.0299 35.0158 45.0384 35.134 45.0219 35.2498V37.1114C45.0219 37.1508 45.0219 37.1683 44.9576 37.1683H44.6327C44.5899 37.1683 44.5684 37.1683 44.5684 37.1114V35.322C44.5684 34.9641 44.4103 34.7533 44.0683 34.7533C43.9144 34.7631 43.7668 34.8193 43.6442 34.9149C43.5217 35.0105 43.4297 35.141 43.38 35.2901M46.0736 35.3338C46.0666 35.4166 46.0779 35.5 46.1064 35.5778C46.135 35.6557 46.1803 35.726 46.2389 35.7837C46.2975 35.8414 46.3679 35.8851 46.4451 35.9115C46.5224 35.9379 46.6044 35.9463 46.6852 35.9363C46.7638 35.9468 46.8438 35.9388 46.9189 35.9131C46.9941 35.8873 47.0626 35.8444 47.119 35.7876C47.1755 35.7308 47.2186 35.6615 47.2449 35.5852C47.2713 35.5088 47.2802 35.4274 47.2711 35.3469C47.2769 35.2631 47.2657 35.1789 47.2383 35.0996C47.2108 35.0203 47.1677 34.9477 47.1116 34.8861C47.0554 34.8246 46.9875 34.7756 46.9119 34.742C46.8364 34.7085 46.7549 34.6912 46.6726 34.6912C46.5902 34.6912 46.5087 34.7085 46.4332 34.742C46.3576 34.7756 46.2897 34.8246 46.2335 34.8861C46.1774 34.9477 46.1343 35.0203 46.1068 35.0996C46.0794 35.1789 46.0682 35.2631 46.074 35.3469M47.5064 37.4421C47.5064 37.2413 47.3954 37.0536 46.9921 37.0536H46.4919C46.1156 37.0536 46.0003 37.2501 46.0003 37.4509C46.0003 37.73 46.2146 37.9138 46.7401 37.9138C47.2655 37.9138 47.5055 37.7217 47.5055 37.4426M47.9341 37.4119C47.9341 37.8494 47.6006 38.2458 46.7156 38.2458C45.8988 38.2458 45.5782 37.9317 45.5782 37.4951C45.58 37.3618 45.6222 37.2324 45.6989 37.1245C45.7757 37.0167 45.8832 36.9357 46.0068 36.8926C45.9505 36.8524 45.904 36.7997 45.8707 36.7385C45.8373 36.6773 45.8181 36.6091 45.8143 36.5391C45.8174 36.4528 45.8454 36.3694 45.8948 36.2994C45.9442 36.2293 46.0129 36.1757 46.092 36.1454C45.9563 36.0656 45.8446 35.9493 45.769 35.8092C45.6935 35.6692 45.657 35.5106 45.6635 35.3509C45.657 35.2164 45.6795 35.082 45.7295 34.9574C45.7796 34.8328 45.8558 34.7209 45.9529 34.6297C46.05 34.5385 46.1655 34.4702 46.2913 34.4296C46.4171 34.389 46.5501 34.3772 46.6809 34.3949H47.8724C47.9067 34.3949 47.9238 34.4168 47.9238 34.4562V34.7051C47.9238 34.7533 47.8981 34.7708 47.8638 34.7708H47.3894C47.4815 34.8482 47.5545 34.9466 47.6028 35.0581C47.651 35.1695 47.673 35.2909 47.6671 35.4126C47.6671 35.9275 47.3294 36.2876 46.6813 36.2876H46.458C46.2699 36.2876 46.1885 36.3751 46.1885 36.4796C46.1885 36.5842 46.2742 36.6717 46.458 36.6717H47.0439C47.6868 36.6717 47.9375 36.9989 47.9375 37.4049M52.0167 34.1749C52.0211 34.1834 52.0233 34.1929 52.023 34.2024C52.0228 34.212 52.0203 34.2214 52.0156 34.2297C52.0109 34.238 52.0042 34.2449 51.9961 34.2499C51.9881 34.2548 51.979 34.2576 51.9696 34.258L51.6919 34.3669C51.6832 34.3704 51.6739 34.372 51.6646 34.3716C51.6552 34.3713 51.6461 34.369 51.6376 34.3649C51.6292 34.3608 51.6217 34.355 51.6156 34.3478C51.6094 34.3406 51.6047 34.3323 51.6019 34.3232C51.5545 34.1731 51.4594 34.0435 51.3315 33.9549C51.2037 33.8664 51.0506 33.824 50.8964 33.8345C50.4679 33.8345 50.2253 34.0397 50.2253 34.3757C50.2253 34.7117 50.4049 34.8132 51.0824 35.0914C51.76 35.3697 52.0489 35.6676 52.0489 36.1852C52.0451 36.3346 52.0109 36.4815 51.9484 36.6166C51.8858 36.7517 51.7963 36.8719 51.6856 36.9697C51.5749 37.0675 51.4455 37.1405 51.3055 37.1843C51.1656 37.2281 51.0182 37.2415 50.8729 37.2238C50.6073 37.2515 50.3407 37.1814 50.1212 37.0262C49.9018 36.8709 49.7438 36.6408 49.6758 36.3773C49.6758 36.3248 49.6758 36.3029 49.7187 36.2858L50.0093 36.19C50.065 36.19 50.0864 36.19 50.0993 36.2425C50.1408 36.4145 50.2422 36.5653 50.3847 36.6665C50.5271 36.7677 50.7008 36.8125 50.8733 36.7924C51.3019 36.7924 51.5787 36.5737 51.5787 36.2206C51.5787 35.8676 51.4163 35.7394 50.7961 35.4961C50.0521 35.1951 49.7701 34.8981 49.7701 34.3831C49.7755 34.2406 49.8099 34.1007 49.871 33.9724C49.9321 33.8441 50.0187 33.7302 50.1253 33.6378C50.2318 33.5455 50.356 33.4767 50.4899 33.436C50.6238 33.3952 50.7646 33.3833 50.9033 33.4009C51.1482 33.3836 51.3919 33.4502 51.5956 33.5901C51.7993 33.7301 51.9514 33.9354 52.0279 34.1736M52.7076 36.3081V34.4426C52.7076 34.4033 52.729 34.3814 52.7719 34.3814H53.0968C53.1396 34.3814 53.1611 34.4033 53.1611 34.4426V36.2276C53.1611 36.5899 53.3192 36.7994 53.6569 36.7994C53.8116 36.7902 53.96 36.7337 54.0828 36.6372C54.2056 36.5406 54.297 36.4086 54.3452 36.2583V34.4426C54.3452 34.4033 54.3452 34.3814 54.4095 34.3814H54.7301C54.7815 34.3814 54.7944 34.4033 54.7944 34.4426V37.107C54.7944 37.1464 54.7944 37.1683 54.7344 37.1683H54.4181C54.4099 37.1698 54.4014 37.1693 54.3934 37.1668C54.3854 37.1643 54.3782 37.1598 54.3723 37.1538C54.3664 37.1477 54.362 37.1403 54.3595 37.1322C54.357 37.124 54.3565 37.1154 54.3581 37.107V36.7448C54.2656 36.8913 54.1388 37.012 53.9891 37.0961C53.8395 37.1801 53.6717 37.2247 53.5009 37.226C53.3865 37.2284 53.2729 37.2054 53.168 37.1586C53.0631 37.1118 52.9694 37.0423 52.8934 36.955C52.8174 36.8677 52.7608 36.7645 52.7276 36.6527C52.6944 36.5408 52.6854 36.423 52.7012 36.3073M57.3011 36.1051V35.4397C57.3151 35.3495 57.3089 35.2573 57.2831 35.1699C57.2573 35.0825 57.2126 35.0022 57.1521 34.9349C57.0917 34.8677 57.0172 34.8152 56.9341 34.7814C56.8511 34.7476 56.7616 34.7333 56.6724 34.7397C56.5825 34.737 56.493 34.7536 56.4097 34.7884C56.3265 34.8231 56.2512 34.8752 56.1888 34.9414C56.1264 35.0075 56.0783 35.0863 56.0475 35.1725C56.0166 35.2588 56.0038 35.3507 56.0098 35.4423V36.0986C56.0032 36.1911 56.0157 36.2841 56.0464 36.3714C56.0772 36.4587 56.1256 36.5385 56.1884 36.6055C56.2513 36.6726 56.3272 36.7254 56.4113 36.7606C56.4954 36.7958 56.5858 36.8126 56.6767 36.8099C57.0701 36.8099 57.3054 36.5654 57.3054 36.1029M55.6207 38.185C55.6132 38.1857 55.6057 38.1847 55.5986 38.182C55.5916 38.1794 55.5851 38.1752 55.5798 38.1698C55.5745 38.1644 55.5704 38.1579 55.5679 38.1507C55.5653 38.1435 55.5643 38.1358 55.565 38.1281V34.44C55.565 34.4006 55.5864 34.3831 55.625 34.3831H55.9413C55.9491 34.3817 55.9571 34.3822 55.9647 34.3845C55.9723 34.3868 55.9793 34.3909 55.9851 34.3964C55.9909 34.4019 55.9954 34.4087 55.9982 34.4163C56.001 34.4238 56.002 34.432 56.0013 34.44V34.7541C56.0857 34.6175 56.2033 34.5054 56.3427 34.4287C56.4821 34.3521 56.6384 34.3135 56.7967 34.3166C56.9298 34.3121 57.0623 34.3368 57.1853 34.389C57.3083 34.4412 57.4189 34.5197 57.5096 34.6192C57.6004 34.7187 57.6692 34.8369 57.7115 34.9658C57.7537 35.0947 57.7684 35.2314 57.7546 35.3666V36.1489C57.7691 36.2833 57.7555 36.4193 57.7147 36.5479C57.6739 36.6766 57.6068 36.7949 57.5179 36.8951C57.429 36.9954 57.3203 37.0752 57.1989 37.1294C57.0775 37.1835 56.9463 37.2108 56.8138 37.2094C56.6542 37.2174 56.4954 37.1809 56.3546 37.1038C56.2137 37.0268 56.096 36.912 56.0141 36.7719V38.1076C56.0148 38.1152 56.0138 38.1229 56.0112 38.1301C56.0086 38.1373 56.0046 38.1438 55.9993 38.1493C55.9939 38.1547 55.9875 38.1589 55.9805 38.1615C55.9734 38.1641 55.9659 38.1651 55.9584 38.1644L55.6207 38.185ZM60.1988 36.1051V35.4397C60.2127 35.3495 60.2066 35.2573 60.1808 35.1699C60.155 35.0825 60.1102 35.0022 60.0498 34.9349C59.9893 34.8677 59.9148 34.8152 59.8318 34.7814C59.7487 34.7476 59.6593 34.7333 59.5701 34.7397C59.4801 34.737 59.3907 34.7536 59.3074 34.7884C59.2241 34.8231 59.1489 34.8752 59.0865 34.9414C59.0241 35.0075 58.9759 35.0863 58.9451 35.1725C58.9143 35.2588 58.9015 35.3507 58.9075 35.4423V36.0986C58.9009 36.1907 58.9132 36.2833 58.9437 36.3703C58.9742 36.4573 59.0222 36.5369 59.0846 36.6039C59.147 36.6709 59.2224 36.7238 59.306 36.7593C59.3896 36.7948 59.4795 36.812 59.5701 36.8099C59.9635 36.8099 60.1988 36.5654 60.1988 36.1029M58.514 38.185C58.5066 38.1857 58.499 38.1847 58.492 38.182C58.4849 38.1794 58.4785 38.1752 58.4732 38.1698C58.4679 38.1644 58.4638 38.1579 58.4612 38.1507C58.4587 38.1435 58.4577 38.1358 58.4583 38.1281V34.44C58.4583 34.4006 58.4797 34.3831 58.5183 34.3831H58.8346C58.8424 34.3817 58.8504 34.3822 58.858 34.3845C58.8656 34.3868 58.8726 34.3909 58.8784 34.3964C58.8842 34.4019 58.8887 34.4087 58.8915 34.4163C58.8943 34.4238 58.8954 34.432 58.8946 34.44V34.7541C58.9791 34.6175 59.0967 34.5054 59.236 34.4287C59.3754 34.3521 59.5318 34.3135 59.6901 34.3166C59.8235 34.3115 59.9565 34.3357 60.08 34.3876C60.2035 34.4395 60.3146 34.5179 60.4059 34.6175C60.4971 34.717 60.5663 34.8355 60.6088 34.9647C60.6513 35.094 60.6661 35.231 60.6522 35.3666V36.1489C60.6667 36.2835 60.6531 36.4197 60.6122 36.5485C60.5712 36.6773 60.504 36.7957 60.4148 36.896C60.3257 36.9962 60.2167 37.076 60.0951 37.1301C59.9735 37.1841 59.842 37.2111 59.7093 37.2094C59.5499 37.2164 59.3914 37.1796 59.2507 37.1026C59.11 37.0256 58.9922 36.9114 58.9096 36.7719V38.1076C58.9103 38.1152 58.9093 38.1229 58.9067 38.1301C58.9041 38.1373 58.9001 38.1438 58.8947 38.1493C58.8894 38.1547 58.883 38.1589 58.876 38.1615C58.8689 38.1641 58.8614 38.1651 58.8539 38.1644L58.514 38.185ZM61.7378 35.4353V36.1423C61.7378 36.3194 61.8067 36.4893 61.9294 36.6146C62.0521 36.7398 62.2185 36.8102 62.392 36.8102C62.5656 36.8102 62.732 36.7398 62.8547 36.6146C62.9774 36.4893 63.0463 36.3194 63.0463 36.1423V35.4353C63.0463 35.2582 62.9774 35.0883 62.8547 34.9631C62.732 34.8378 62.5656 34.7675 62.392 34.7675C62.2185 34.7675 62.0521 34.8378 61.9294 34.9631C61.8067 35.0883 61.7378 35.2582 61.7378 35.4353ZM63.495 35.4134V36.1423C63.495 36.441 63.3788 36.7274 63.1719 36.9386C62.965 37.1498 62.6844 37.2684 62.3918 37.2684C62.0993 37.2684 61.8187 37.1498 61.6118 36.9386C61.4049 36.7274 61.2887 36.441 61.2887 36.1423V35.4266C61.2887 35.1279 61.4049 34.8415 61.6118 34.6303C61.8187 34.4191 62.0993 34.3004 62.3918 34.3004C62.6844 34.3004 62.965 34.4191 63.1719 34.6303C63.3788 34.8415 63.495 35.1279 63.495 35.4266M65.5432 34.3967V34.7051C65.5432 34.7533 65.5432 34.7708 65.4746 34.7708H65.4189C65.2479 34.7648 65.0796 34.8156 64.9393 34.9156C64.799 35.0155 64.6942 35.1592 64.6406 35.3251V37.0983C64.6406 37.1376 64.6149 37.1508 64.5849 37.1508H64.2472C64.2402 37.1514 64.2333 37.1505 64.2267 37.1481C64.2202 37.1457 64.2142 37.1419 64.2093 37.1369C64.2044 37.1319 64.2006 37.1258 64.1983 37.1191C64.1959 37.1124 64.1951 37.1053 64.1957 37.0983V34.44C64.1957 34.3963 64.1957 34.3831 64.2557 34.3831H64.5635C64.6063 34.3831 64.6277 34.405 64.6277 34.4444V34.8819C64.7062 34.72 64.8288 34.5848 64.981 34.4926C65.1331 34.4005 65.3081 34.3553 65.4849 34.3626C65.5492 34.3626 65.5663 34.3626 65.5663 34.4282M66.8491 33.7282V34.3958H67.4307C67.4735 34.3958 67.4907 34.4177 67.4907 34.4658V34.7148C67.4907 34.7629 67.4907 34.7804 67.4307 34.7804H66.8491V36.3908C66.8491 36.6398 66.9815 36.7531 67.2297 36.7531H67.4264C67.4692 36.7531 67.4907 36.7531 67.4907 36.8143V37.0978C67.4907 37.1459 67.4907 37.1634 67.4264 37.1634H67.1654C67.0682 37.1779 66.9691 37.1701 66.8753 37.1406C66.7814 37.1111 66.6952 37.0608 66.6228 36.9931C66.5503 36.9254 66.4935 36.8422 66.4565 36.7494C66.4194 36.6566 66.403 36.5565 66.4085 36.4564V34.7848H66.0365C66.0022 34.7848 65.9808 34.7848 65.9808 34.7191V34.4702C65.9808 34.4221 66.0022 34.4002 66.0365 34.4002H66.4128V33.7286C66.4128 33.6936 66.4128 33.6718 66.4771 33.6718H66.7848C66.8362 33.6718 66.8491 33.6713 66.8491 33.7282ZM71.749 34.2042C71.749 34.2567 71.749 34.2961 71.6762 34.3175L71.1975 34.4964C71.1856 34.5028 71.1724 34.5064 71.159 34.5069C71.1455 34.5074 71.1322 34.5048 71.1198 34.4994C71.1075 34.4939 71.0965 34.4857 71.0877 34.4754C71.0789 34.465 71.0725 34.4528 71.0689 34.4396C71.0287 34.3287 70.9535 34.2347 70.8552 34.1723C70.7569 34.1099 70.641 34.0826 70.5259 34.0948C70.231 34.0948 70.0386 34.2388 70.0386 34.4571C70.0386 34.6754 70.1882 34.7668 70.8529 35.0026C71.5176 35.2384 71.785 35.5613 71.785 36.0964C71.785 36.7382 71.2463 37.2269 70.468 37.2269C70.1805 37.2624 69.89 37.1912 69.6498 37.0261C69.4095 36.861 69.2355 36.6131 69.1596 36.3278C69.1556 36.3167 69.154 36.3048 69.1547 36.293C69.1554 36.2811 69.1584 36.2696 69.1636 36.259C69.1688 36.2484 69.1761 36.239 69.185 36.2313C69.1938 36.2237 69.2042 36.218 69.2153 36.2145L69.7326 36.0395C69.8011 36.0176 69.835 36.0395 69.8521 36.1095C69.8804 36.2482 69.9594 36.3707 70.073 36.4519C70.1867 36.5332 70.3264 36.5672 70.4637 36.547C70.8143 36.547 70.9982 36.3943 70.9982 36.1673C70.9982 35.9402 70.8657 35.861 70.327 35.6698C69.553 35.3863 69.2581 35.0718 69.2581 34.4886C69.2694 34.3334 69.311 34.182 69.3805 34.0435C69.4499 33.905 69.5459 33.782 69.6626 33.682C69.7794 33.5819 69.9146 33.5067 70.0603 33.4609C70.206 33.415 70.3592 33.3994 70.5109 33.4149C70.7763 33.388 71.043 33.4529 71.2679 33.5994C71.4928 33.7459 71.6629 33.9654 71.7508 34.2226M73.2902 33.7684V34.3971H73.8045C73.8155 34.3957 73.8267 34.3969 73.8373 34.4006C73.8478 34.4042 73.8573 34.4103 73.8652 34.4183C73.873 34.4263 73.879 34.4361 73.8826 34.4468C73.8862 34.4576 73.8873 34.469 73.8859 34.4803V34.9388C73.8867 34.9497 73.885 34.9606 73.8811 34.9708C73.8772 34.981 73.8711 34.9901 73.8634 34.9977C73.8556 35.0052 73.8463 35.0109 73.8361 35.0143C73.8259 35.0177 73.8152 35.0188 73.8045 35.0175H73.2902V36.2613C73.2902 36.4228 73.3759 36.5146 73.5808 36.5146H73.8032C73.8547 36.5146 73.8847 36.5409 73.8847 36.589V37.107C73.8847 37.1595 73.8547 37.1814 73.8032 37.1814H73.4587C72.8428 37.1814 72.5522 36.8498 72.5522 36.3606V35.0044H72.2359C72.2253 35.0057 72.2145 35.0046 72.2043 35.0012C72.1941 34.9977 72.1849 34.9921 72.1771 34.9845C72.1693 34.977 72.1632 34.9678 72.1593 34.9577C72.1554 34.9475 72.1538 34.9365 72.1545 34.9256V34.4663C72.1531 34.455 72.1542 34.4436 72.1578 34.4328C72.1614 34.4221 72.1674 34.4123 72.1752 34.4043C72.1831 34.3963 72.1927 34.3902 72.2032 34.3865C72.2137 34.3829 72.2249 34.3817 72.2359 34.3831H72.5651V33.768C72.5638 33.7577 72.5647 33.7473 72.5679 33.7374C72.571 33.7276 72.5762 33.7186 72.5832 33.711C72.5902 33.7035 72.5987 33.6976 72.6082 33.6939C72.6176 33.6901 72.6278 33.6885 72.6379 33.6893H73.2195C73.2667 33.6893 73.2881 33.7199 73.2881 33.768M75.8621 36.2211V35.9586C75.7194 35.9499 75.5763 35.9499 75.4336 35.9586C75.1558 35.9936 75.005 36.0806 75.005 36.2989C75.005 36.5173 75.1335 36.6052 75.3478 36.6052C75.4655 36.6068 75.5804 36.5688 75.6747 36.4969C75.769 36.4251 75.8374 36.3235 75.8694 36.2079M76.6006 35.2476V37.0808C76.6006 37.0909 76.5986 37.1009 76.5947 37.1103C76.5907 37.1196 76.585 37.128 76.5777 37.135C76.5705 37.1419 76.562 37.1473 76.5526 37.1508C76.5433 37.1542 76.5334 37.1557 76.5234 37.1551H75.9761C75.9662 37.1557 75.9563 37.1542 75.9469 37.1508C75.9376 37.1473 75.9291 37.1419 75.9218 37.135C75.9146 37.128 75.9088 37.1196 75.9049 37.1103C75.901 37.1009 75.899 37.0909 75.899 37.0808V36.7798C75.8225 36.915 75.712 37.0269 75.579 37.1038C75.4459 37.1807 75.295 37.2199 75.1421 37.2173C75.0272 37.2268 74.9116 37.2107 74.8034 37.1701C74.6952 37.1295 74.5969 37.0653 74.5153 36.9821C74.4338 36.8989 74.371 36.7985 74.3312 36.688C74.2914 36.5776 74.2756 36.4596 74.285 36.3423C74.285 35.8317 74.6012 35.5303 75.3667 35.4673C75.5316 35.452 75.6976 35.452 75.8626 35.4673V35.2695C75.8699 35.2175 75.8651 35.1645 75.8487 35.1147C75.8323 35.0649 75.8048 35.0198 75.7682 34.9828C75.7316 34.9459 75.687 34.9183 75.6381 34.9021C75.5891 34.8859 75.5371 34.8817 75.4863 34.8898C75.403 34.8783 75.3185 34.8981 75.2485 34.9455C75.1785 34.9929 75.1277 35.0647 75.1057 35.1474C75.08 35.2087 75.0628 35.2218 75.0075 35.2043L74.4603 35.0648C74.4045 35.0648 74.4002 35.0166 74.4131 34.9773C74.486 34.5756 74.8417 34.2834 75.512 34.2834C76.1823 34.2834 76.5937 34.615 76.5937 35.2437M78.8258 34.3971V34.9427C78.8258 35.0083 78.8001 35.0302 78.7362 35.0302H78.6548C78.4985 35.01 78.3405 35.0485 78.2099 35.1383C78.0794 35.2282 77.9852 35.3635 77.945 35.5189V37.0808C77.9463 37.0901 77.9455 37.0996 77.9428 37.1086C77.9402 37.1176 77.9356 37.1259 77.9295 37.1329C77.9234 37.14 77.9159 37.1456 77.9075 37.1494C77.8991 37.1533 77.89 37.1552 77.8807 37.1551H77.2563C77.2471 37.1552 77.238 37.1533 77.2296 37.1494C77.2211 37.1456 77.2136 37.14 77.2075 37.1329C77.2014 37.1259 77.1969 37.1176 77.1942 37.1086C77.1915 37.0996 77.1908 37.0901 77.192 37.0808V34.4181C77.1913 34.4084 77.1927 34.3986 77.1962 34.3894C77.1996 34.3803 77.2051 34.3721 77.2121 34.3654C77.2191 34.3586 77.2274 34.3536 77.2366 34.3506C77.2457 34.3477 77.2554 34.3468 77.2649 34.3481H77.8336C77.8437 34.3474 77.8539 34.349 77.8634 34.3527C77.8728 34.3565 77.8813 34.3624 77.8883 34.3699C77.8953 34.3774 77.9005 34.3864 77.9037 34.3963C77.9068 34.4062 77.9078 34.4166 77.9065 34.4269V34.8329C77.9788 34.6805 78.0928 34.5529 78.2347 34.4653C78.3767 34.3778 78.5405 34.3342 78.7062 34.3398C78.8043 34.3398 78.8258 34.3398 78.8258 34.4273M80.2881 33.7684V34.3971H80.8024C80.8131 34.3964 80.8238 34.3981 80.8338 34.4021C80.8437 34.4061 80.8527 34.4123 80.8601 34.4202C80.8675 34.4281 80.873 34.4376 80.8764 34.448C80.8797 34.4584 80.8808 34.4694 80.8795 34.4803V34.9388C80.881 34.9494 80.8799 34.9603 80.8766 34.9705C80.8732 34.9807 80.8675 34.99 80.8601 34.9976C80.8526 35.0053 80.8435 35.011 80.8335 35.0145C80.8235 35.0179 80.8129 35.019 80.8024 35.0175H80.2881V36.2613C80.2881 36.4228 80.3738 36.5146 80.5744 36.5146H80.8011C80.8112 36.5133 80.8214 36.5143 80.8311 36.5175C80.8407 36.5207 80.8495 36.5261 80.8569 36.5332C80.8643 36.5403 80.8701 36.549 80.8737 36.5586C80.8774 36.5683 80.879 36.5787 80.8782 36.589V37.107C80.8782 37.1595 80.8482 37.1814 80.8011 37.1814H80.4548C79.8389 37.1814 79.5526 36.8498 79.5526 36.3606V35.0044H79.2321C79.2216 35.0058 79.211 35.0048 79.201 35.0013C79.1909 34.9979 79.1819 34.9921 79.1744 34.9845C79.1669 34.9769 79.1613 34.9676 79.1579 34.9574C79.1545 34.9472 79.1535 34.9363 79.1549 34.9256V34.4663C79.1536 34.4554 79.1547 34.4444 79.1581 34.434C79.1614 34.4236 79.167 34.4141 79.1744 34.4062C79.1817 34.3983 79.1907 34.3921 79.2007 34.3881C79.2107 34.3841 79.2214 34.3824 79.2321 34.3831H79.5612V33.768C79.5598 33.7573 79.5608 33.7465 79.5642 33.7362C79.5676 33.726 79.5732 33.7167 79.5807 33.7091C79.5882 33.7015 79.5972 33.6957 79.6072 33.6923C79.6172 33.6889 79.6279 33.6878 79.6384 33.6893H80.2199C80.2297 33.6892 80.2394 33.6912 80.2483 33.6953C80.2573 33.6993 80.2652 33.7053 80.2717 33.7127C80.2782 33.7202 80.2831 33.729 80.286 33.7385C80.2889 33.7481 80.2897 33.7581 80.2885 33.768M83.538 34.9856C83.538 35.0293 83.538 35.0687 83.478 35.0858L83.0207 35.2516C82.9693 35.2516 82.9436 35.2516 82.9226 35.1947C82.8879 35.0982 82.8227 35.0163 82.7374 34.9618C82.652 34.9073 82.5513 34.8833 82.4511 34.8937C82.2158 34.8937 82.0791 34.9856 82.0791 35.1251C82.0791 35.2647 82.1773 35.3172 82.7036 35.4611C83.3152 35.6269 83.5607 35.8986 83.5607 36.3361C83.5607 36.8773 83.1322 37.2111 82.449 37.2111C81.7658 37.2111 81.4058 36.9622 81.2644 36.5348C81.2644 36.4735 81.2644 36.4433 81.3373 36.4127L81.7393 36.2119C81.7993 36.1813 81.8331 36.2119 81.8631 36.2731C81.9075 36.384 81.9857 36.4773 82.086 36.5394C82.1863 36.6014 82.3035 36.629 82.4203 36.6179C82.698 36.6179 82.8489 36.526 82.8489 36.3733C82.8489 36.2206 82.695 36.1463 82.2034 36.0067C81.6004 35.8453 81.3463 35.5692 81.3463 35.1317C81.3463 34.5993 81.7748 34.2567 82.4151 34.2567C82.6481 34.2327 82.8825 34.2865 83.0829 34.41C83.2834 34.5336 83.4392 34.7202 83.5269 34.9418M88.1453 33.5239V37.0851C88.1453 37.1289 88.1453 37.1595 88.0681 37.1595H87.4608C87.4509 37.1601 87.441 37.1586 87.4316 37.1552C87.4223 37.1517 87.4137 37.1463 87.4065 37.1393C87.3993 37.1324 87.3935 37.124 87.3896 37.1146C87.3857 37.1053 87.3837 37.0953 87.3837 37.0851V35.6794H86.1309V37.0939C86.1317 37.1042 86.1301 37.1146 86.1264 37.1242C86.1227 37.1339 86.117 37.1426 86.1096 37.1497C86.1022 37.1568 86.0934 37.1622 86.0838 37.1654C86.0741 37.1686 86.0639 37.1696 86.0538 37.1683H85.4293C85.4194 37.1689 85.4095 37.1674 85.4002 37.1639C85.3908 37.1604 85.3823 37.155 85.375 37.1481C85.3678 37.1411 85.3621 37.1327 85.3581 37.1234C85.3542 37.1141 85.3522 37.104 85.3522 37.0939V33.5239C85.3521 33.5133 85.3543 33.5029 85.3584 33.4932C85.3626 33.4836 85.3688 33.475 85.3765 33.4679C85.3842 33.4609 85.3933 33.4556 85.4031 33.4524C85.413 33.4493 85.4234 33.4483 85.4336 33.4495H86.0538C86.0639 33.4482 86.0741 33.4492 86.0838 33.4524C86.0934 33.4556 86.1022 33.4609 86.1096 33.468C86.117 33.4752 86.1227 33.4839 86.1264 33.4935C86.1301 33.5032 86.1317 33.5135 86.1309 33.5239V34.9379H87.3837V33.5239C87.3837 33.5137 87.3857 33.5037 87.3896 33.4944C87.3935 33.4851 87.3993 33.4766 87.4065 33.4697C87.4137 33.4627 87.4223 33.4573 87.4316 33.4539C87.441 33.4504 87.4509 33.4489 87.4608 33.4495H88.081C88.1367 33.4495 88.1581 33.4801 88.1581 33.5239M89.4666 35.4051V35.5009H90.4245V35.4051C90.4297 35.3377 90.4212 35.2698 90.3995 35.2059C90.3778 35.142 90.3434 35.0833 90.2984 35.0336C90.2534 34.9839 90.1988 34.9442 90.1381 34.9171C90.0774 34.89 90.0118 34.876 89.9455 34.876C89.8792 34.876 89.8137 34.89 89.7529 34.9171C89.6922 34.9442 89.6376 34.9839 89.5926 35.0336C89.5477 35.0833 89.5132 35.142 89.4915 35.2059C89.4698 35.2698 89.4613 35.3377 89.4666 35.4051ZM89.4666 35.9988V36.1051C89.4553 36.1744 89.4606 36.2454 89.4819 36.3121C89.5032 36.3789 89.5399 36.4394 89.589 36.4886C89.638 36.5379 89.698 36.5743 89.7637 36.5949C89.8295 36.6155 89.8991 36.6196 89.9667 36.6069C90.0742 36.6238 90.1841 36.6039 90.2792 36.5502C90.3744 36.4965 90.4494 36.4122 90.4926 36.3103C90.5397 36.2316 90.5612 36.2228 90.6379 36.2578L91.0313 36.463C91.1128 36.5024 91.117 36.5418 91.0828 36.6201C90.9749 36.8226 90.8114 36.9885 90.6124 37.0974C90.4133 37.2062 90.1874 37.2532 89.9624 37.2326C89.8064 37.2537 89.6478 37.2398 89.4976 37.1916C89.3475 37.1435 89.2095 37.0624 89.0933 36.9539C88.9772 36.8455 88.8857 36.7124 88.8254 36.564C88.765 36.4157 88.7372 36.2556 88.744 36.0951V35.4397C88.7365 35.2801 88.7633 35.1209 88.8225 34.973C88.8818 34.8252 88.972 34.6924 89.087 34.584C89.2019 34.4756 89.3386 34.3941 89.4877 34.3455C89.6367 34.2968 89.7944 34.282 89.9496 34.3022C90.1005 34.2868 90.253 34.305 90.3964 34.3554C90.5398 34.4058 90.6709 34.4873 90.7805 34.5943C90.8902 34.7012 90.9759 34.8312 91.0318 34.9751C91.0877 35.1191 91.1124 35.2737 91.1042 35.4283V35.8658C91.1042 35.9402 91.0785 35.9923 90.9718 35.9923L89.4666 35.9988ZM93.2719 34.3971V34.9427C93.2719 35.0083 93.2505 35.0302 93.182 35.0302H93.1048C92.9486 35.01 92.7905 35.0485 92.66 35.1383C92.5294 35.2282 92.4353 35.3635 92.3951 35.5189V37.0808C92.3957 37.09 92.3945 37.0992 92.3915 37.1079C92.3886 37.1166 92.384 37.1247 92.3781 37.1316C92.3721 37.1385 92.3648 37.1441 92.3567 37.1482C92.3486 37.1522 92.3398 37.1546 92.3308 37.1551H91.7021C91.6928 37.1552 91.6837 37.1533 91.6753 37.1494C91.6669 37.1456 91.6594 37.14 91.6533 37.1329C91.6472 37.1259 91.6426 37.1176 91.64 37.1086C91.6373 37.0996 91.6366 37.0901 91.6378 37.0808V34.4181C91.637 34.4084 91.6385 34.3986 91.6419 34.3894C91.6454 34.3803 91.6508 34.3721 91.6578 34.3654C91.6648 34.3586 91.6732 34.3536 91.6823 34.3506C91.6915 34.3477 91.7011 34.3468 91.7106 34.3481H92.2794C92.3394 34.3481 92.3522 34.3875 92.3522 34.4269V34.8329C92.4245 34.6805 92.5385 34.5529 92.6805 34.4653C92.8224 34.3778 92.9862 34.3342 93.1519 34.3398C93.2544 34.3398 93.2715 34.3398 93.2715 34.4273M94.3576 35.4051V35.5009H95.3163V35.4051C95.3215 35.3377 95.313 35.2698 95.2913 35.2059C95.2696 35.142 95.2352 35.0833 95.1902 35.0336C95.1452 34.9839 95.0907 34.9442 95.0299 34.9171C94.9692 34.89 94.9036 34.876 94.8373 34.876C94.7711 34.876 94.7055 34.89 94.6448 34.9171C94.584 34.9442 94.5294 34.9839 94.4845 35.0336C94.4395 35.0833 94.4051 35.142 94.3834 35.2059C94.3617 35.2698 94.3532 35.3377 94.3584 35.4051M94.3584 35.9988V36.1051C94.3472 36.1744 94.3524 36.2454 94.3737 36.3121C94.395 36.3789 94.4318 36.4394 94.4808 36.4886C94.5299 36.5379 94.5898 36.5743 94.6555 36.5949C94.7213 36.6155 94.7909 36.6196 94.8586 36.6069C94.9666 36.6241 95.0772 36.6043 95.173 36.5506C95.2689 36.497 95.3447 36.4125 95.3887 36.3103C95.4316 36.2316 95.453 36.2228 95.5297 36.2578L95.9232 36.463C96.0046 36.5024 96.0089 36.5418 95.9746 36.6201C95.8668 36.8226 95.7032 36.9885 95.5042 37.0974C95.3051 37.2062 95.0792 37.2532 94.8543 37.2326C94.6989 37.2524 94.5412 37.2373 94.3921 37.1886C94.243 37.1398 94.1061 37.0584 93.991 36.9502C93.8758 36.8419 93.7851 36.7093 93.7253 36.5616C93.6654 36.414 93.6378 36.2547 93.6444 36.0951V35.4397C93.6369 35.2801 93.6637 35.1209 93.7229 34.973C93.7822 34.8252 93.8724 34.6924 93.9874 34.584C94.1023 34.4756 94.239 34.3941 94.3881 34.3455C94.5371 34.2968 94.6948 34.282 94.85 34.3022C95.0009 34.2868 95.1534 34.305 95.2968 34.3554C95.4402 34.4058 95.5713 34.4873 95.6809 34.5943C95.7906 34.7012 95.8763 34.8312 95.9322 34.9751C95.9881 35.1191 96.0128 35.2737 96.0046 35.4283V35.8658C96.0046 35.9402 95.9789 35.9923 95.8722 35.9923L94.3584 35.9988Z" fill="white"/>
</g>
</g>
<defs>
<clipPath id="clip0_991_5598">
<rect width="96" height="28" fill="white" transform="translate(0 14)"/>
</clipPath>
</defs>
</svg>
