<svg width="96" height="56" viewBox="0 0 96 56" fill="none" xmlns="http://www.w3.org/2000/svg">
<g clip-path="url(#clip0_991_5786)">
<path d="M46.6412 36.7982L1.0075 36.7982C0.782959 36.7982 0.567616 36.7057 0.40884 36.5412C0.250065 36.3767 0.160866 36.1536 0.160866 35.921V27.728C0.160866 25.4574 1.03145 23.2797 2.58109 21.6742C4.13074 20.0686 6.2325 19.1666 8.42403 19.1666L46.6412 19.1666C46.8657 19.1666 47.081 19.259 47.2398 19.4235C47.3986 19.588 47.4878 19.8111 47.4878 20.0438V35.9561C47.4878 36.1887 47.3986 36.4118 47.2398 36.5763C47.081 36.7408 46.8657 36.8333 46.6412 36.8333V36.7982Z" fill="#35A8E0"/>
<path d="M46.6499 37H1.01629C0.749081 37 0.49282 36.89 0.303878 36.6942C0.114936 36.4985 0.00878906 36.233 0.00878906 35.9561V27.7631C0.00878906 25.4367 0.900777 23.2055 2.48853 21.5604C4.07628 19.9154 6.22973 18.9912 8.47514 18.9912H46.6499C46.9171 18.9912 47.1734 19.1012 47.3623 19.297C47.5513 19.4927 47.6574 19.7582 47.6574 20.0351V35.9561C47.6574 36.233 47.5513 36.4985 47.3623 36.6942C47.1734 36.89 46.9171 37 46.6499 37ZM8.45821 19.4123C6.31902 19.4146 4.26808 20.2961 2.75544 21.8633C1.2428 23.4305 0.392017 25.5555 0.389776 27.7719V35.9649C0.389776 36.1347 0.454891 36.2976 0.570796 36.4177C0.686702 36.5378 0.843904 36.6052 1.00782 36.6052H46.6499C46.7311 36.6052 46.8115 36.5887 46.8865 36.5565C46.9614 36.5243 47.0296 36.4772 47.087 36.4177C47.1444 36.3582 47.1899 36.2876 47.2209 36.2099C47.252 36.1323 47.268 36.049 47.268 35.9649V20.0438C47.268 19.9598 47.252 19.8765 47.2209 19.7988C47.1899 19.7211 47.1444 19.6505 47.087 19.591C47.0296 19.5316 46.9614 19.4844 46.8865 19.4522C46.8115 19.4201 46.7311 19.4035 46.6499 19.4035L8.45821 19.4123Z" fill="white"/>
<path d="M16.1368 27.3684V33.9386C16.1368 33.9712 16.1243 34.0024 16.1021 34.0254C16.0798 34.0485 16.0497 34.0614 16.0183 34.0614H13.5291C13.4977 34.0614 13.4676 34.0485 13.4453 34.0254C13.4231 34.0024 13.4106 33.9712 13.4106 33.9386C13.4105 33.9188 13.4058 33.8992 13.3968 33.8817C13.3878 33.8642 13.3748 33.8491 13.359 33.8379C13.3432 33.8267 13.325 33.8196 13.306 33.8173C13.2869 33.815 13.2676 33.8175 13.2498 33.8246C13.0008 33.9067 12.7461 33.9683 12.4878 34.0088C12.1769 34.0598 11.8627 34.0861 11.548 34.0877C10.7857 34.0747 10.0328 33.911 9.32983 33.6053C8.5957 33.3022 7.92989 32.8453 7.3741 32.2632C6.82037 31.6975 6.38517 31.0197 6.09568 30.2719C5.81591 29.5404 5.67227 28.7606 5.67236 27.9737C5.67263 27.184 5.81623 26.4014 6.09568 25.6667C6.38309 24.9054 6.8215 24.2151 7.38257 23.6404C7.93836 23.0583 8.60417 22.6014 9.33829 22.2983C10.7663 21.6984 12.3636 21.6984 13.7916 22.2983C14.4857 22.5861 15.1185 23.0123 15.6542 23.5526C15.6655 23.5641 15.6744 23.5777 15.6805 23.5928C15.6866 23.6079 15.6898 23.624 15.6898 23.6404C15.6898 23.6567 15.6866 23.6729 15.6805 23.6879C15.6744 23.703 15.6655 23.7166 15.6542 23.7281L13.9017 25.5439C13.8906 25.5555 13.8775 25.5648 13.8629 25.5711C13.8484 25.5775 13.8328 25.5807 13.817 25.5807C13.8012 25.5807 13.7856 25.5775 13.7711 25.5711C13.7565 25.5648 13.7434 25.5555 13.7323 25.5439C13.4501 25.2682 13.1196 25.0508 12.7587 24.9035C11.9872 24.5825 11.1258 24.5825 10.3543 24.9035C9.95703 25.0644 9.59658 25.3094 9.29596 25.6228C8.99877 25.9293 8.76293 26.2936 8.60201 26.6948C8.44109 27.0959 8.35825 27.5261 8.35825 27.9605C8.35825 28.395 8.44109 28.8251 8.60201 29.2263C8.76293 29.6275 8.99877 29.9918 9.29596 30.2983C9.56605 30.5819 9.88474 30.8109 10.2357 30.9737C10.5755 31.1319 10.9394 31.2269 11.311 31.2544C11.6809 31.2833 12.053 31.2477 12.4116 31.1491C12.7538 31.0563 13.0776 30.9019 13.3683 30.693C13.3846 30.6813 13.3978 30.6655 13.4066 30.6471C13.4155 30.6287 13.4198 30.6083 13.4191 30.5877V30.1667C13.4191 30.1341 13.4066 30.1029 13.3844 30.0798C13.3621 30.0568 13.332 30.0439 13.3005 30.0439H11.1755C11.1441 30.0439 11.1139 30.0309 11.0917 30.0079C11.0695 29.9849 11.057 29.9536 11.057 29.9211V27.3684C11.057 27.3359 11.0695 27.3046 11.0917 27.2816C11.1139 27.2586 11.1441 27.2456 11.1755 27.2456H16.0098C16.026 27.2444 16.0424 27.2467 16.0577 27.2523C16.0731 27.258 16.0872 27.2668 16.0991 27.2783C16.111 27.2899 16.1205 27.3038 16.127 27.3193C16.1335 27.3348 16.1368 27.3515 16.1368 27.3684Z" fill="white"/>
<path d="M25.3991 33.9912L24.9927 32.7281C24.9852 32.7019 24.9695 32.679 24.948 32.6631C24.9265 32.6472 24.9006 32.6392 24.8742 32.6403H21.3353C21.3104 32.6411 21.2863 32.65 21.2665 32.6657C21.2468 32.6815 21.2323 32.7033 21.2252 32.7281L20.8019 34.0351C20.7948 34.0598 20.7803 34.0816 20.7606 34.0974C20.7408 34.1131 20.7167 34.122 20.6918 34.1228H18.0842C18.065 34.1227 18.0462 34.1178 18.0293 34.1085C18.0123 34.0991 17.9978 34.0857 17.987 34.0693C17.9762 34.0529 17.9694 34.0341 17.9671 34.0144C17.9649 33.9947 17.9673 33.9747 17.9741 33.9561L21.894 22.0263C21.9012 22.0015 21.9156 21.9797 21.9354 21.964C21.9551 21.9482 21.9792 21.9394 22.0041 21.9386H24.3916C24.418 21.9374 24.444 21.9455 24.4654 21.9614C24.4869 21.9772 24.5026 22.0001 24.5102 22.0263L28.2269 33.9561C28.234 33.9754 28.2364 33.9962 28.2337 34.0166C28.2311 34.0371 28.2235 34.0565 28.2117 34.0731C28.1999 34.0897 28.1842 34.103 28.1662 34.1117C28.1481 34.1203 28.1282 34.1242 28.1084 34.1228H25.5176C25.5013 34.1228 25.4852 34.1194 25.4702 34.1127C25.4553 34.106 25.4418 34.0961 25.4307 34.0838C25.4196 34.0714 25.411 34.0568 25.4056 34.0409C25.4002 34.025 25.398 34.0081 25.3991 33.9912ZM22.3597 29.7982H23.9344C23.9543 29.7996 23.9742 29.7958 23.9923 29.7871C24.0103 29.7784 24.026 29.7652 24.0378 29.7485C24.0496 29.7319 24.0572 29.7125 24.0598 29.6921C24.0625 29.6716 24.0601 29.6508 24.053 29.6316L23.291 27.193C23.2841 27.167 23.2692 27.1441 23.2486 27.1278C23.2279 27.1115 23.2027 27.1027 23.1767 27.1027C23.1507 27.1027 23.1255 27.1115 23.1048 27.1278C23.0842 27.1441 23.0693 27.167 23.0624 27.193L22.2158 29.6316C22.2066 29.6532 22.2036 29.677 22.2072 29.7003C22.2108 29.7236 22.2207 29.7454 22.2359 29.7629C22.2511 29.7805 22.2708 29.7932 22.2928 29.7994C22.3147 29.8057 22.338 29.8053 22.3597 29.7982Z" fill="white"/>
<path d="M38.615 21.8772H41.2057C41.2357 21.8771 41.2647 21.8888 41.2867 21.91C41.3087 21.9312 41.3221 21.9602 41.3242 21.9912L42.0016 33.9386C42.0027 33.9554 42.0005 33.9724 41.9951 33.9883C41.9897 34.0042 41.9811 34.0188 41.97 34.0312C41.9589 34.0435 41.9454 34.0534 41.9304 34.0601C41.9155 34.0668 41.8993 34.0702 41.883 34.0702H39.4109C39.3808 34.0703 39.3519 34.0585 39.3299 34.0374C39.3079 34.0162 39.2945 33.9872 39.2923 33.9561L39.0468 29.7281C39.0468 29.6955 39.0343 29.6643 39.0121 29.6412C38.9899 29.6182 38.9597 29.6053 38.9283 29.6053C38.8968 29.6053 38.8667 29.6182 38.8445 29.6412C38.8222 29.6643 38.8097 29.6955 38.8097 29.7281L37.4213 33.9912C37.4141 34.016 37.3997 34.0378 37.3799 34.0535C37.3602 34.0693 37.3361 34.0782 37.3112 34.079H34.7713C34.7464 34.0782 34.7223 34.0693 34.7026 34.0535C34.6828 34.0378 34.6683 34.016 34.6612 33.9912L33.1373 29.4825C33.1373 29.4499 33.1248 29.4187 33.1026 29.3956C33.0803 29.3726 33.0502 29.3597 33.0188 29.3597C32.9873 29.3597 32.9572 29.3726 32.9349 29.3956C32.9127 29.4187 32.9002 29.4499 32.9002 29.4825L32.6293 33.9211C32.6272 33.9521 32.6137 33.9811 32.5917 34.0023C32.5697 34.0234 32.5408 34.0352 32.5108 34.0351H30.0217C30.0054 34.0351 29.9892 34.0317 29.9743 34.025C29.9593 34.0183 29.9458 34.0084 29.9347 33.9961C29.9236 33.9837 29.915 33.9691 29.9096 33.9532C29.9042 33.9373 29.902 33.9204 29.9031 33.9035L30.6482 22C30.6503 21.969 30.6637 21.9399 30.6857 21.9188C30.7077 21.8976 30.7367 21.8859 30.7667 21.886H33.3574C33.3823 21.8867 33.4064 21.8956 33.4261 21.9114C33.4459 21.9271 33.4604 21.9489 33.4675 21.9737L35.9058 29.1842C35.9127 29.2102 35.9276 29.233 35.9482 29.2493C35.9689 29.2657 35.9941 29.2745 36.0201 29.2745C36.046 29.2745 36.0713 29.2657 36.0919 29.2493C36.1126 29.233 36.1275 29.2102 36.1344 29.1842L38.505 21.9737C38.5105 21.9473 38.5243 21.9236 38.5442 21.9061C38.5641 21.8887 38.589 21.8785 38.615 21.8772Z" fill="white"/>
<path d="M49.3418 19.2017H94.9923C95.2169 19.2017 95.4322 19.2941 95.591 19.4586C95.7498 19.6231 95.839 19.8462 95.839 20.0789V28.2718C95.839 30.5425 94.9684 32.7201 93.4188 34.3257C91.8691 35.9312 89.7673 36.8332 87.5758 36.8332H49.3418C49.1172 36.8332 48.9019 36.7408 48.7431 36.5763C48.5843 36.4118 48.4951 36.1887 48.4951 35.956V20.0438C48.5039 19.8173 48.5969 19.603 48.7548 19.4461C48.9126 19.2891 49.123 19.2015 49.3418 19.2017Z" fill="#1D1D1B"/>
<path d="M87.5422 37H49.342C49.0748 37 48.8185 36.89 48.6296 36.6943C48.4406 36.4985 48.3345 36.233 48.3345 35.9561V20.0439C48.3345 19.767 48.4406 19.5015 48.6296 19.3057C48.8185 19.11 49.0748 19 49.342 19H94.9926C95.2598 19 95.516 19.11 95.705 19.3057C95.8939 19.5015 96.0001 19.767 96.0001 20.0439V28.2368C95.9978 30.5603 95.106 32.7879 93.5203 34.4308C91.9346 36.0737 89.7846 36.9977 87.5422 37ZM49.342 19.4123C49.1781 19.4123 49.0209 19.4797 48.9049 19.5998C48.789 19.7199 48.7239 19.8828 48.7239 20.0526V35.9561C48.7239 36.126 48.789 36.2888 48.9049 36.4089C49.0209 36.529 49.1781 36.5965 49.342 36.5965H87.5422C89.6814 36.5942 91.7323 35.7127 93.2449 34.1454C94.7576 32.5782 95.6084 30.4532 95.6106 28.2368V20.0439C95.6106 19.874 95.5455 19.7112 95.4296 19.5911C95.3137 19.471 95.1565 19.4035 94.9926 19.4035L49.342 19.4123Z" fill="white"/>
<path d="M56.047 34.079C55.6722 34.0782 55.2991 34.0251 54.9379 33.9211C54.5658 33.8141 54.2117 33.6484 53.8881 33.4299C53.3236 33.0567 52.8602 32.5404 52.542 31.9299C52.2387 31.3499 52.0733 30.7034 52.0594 30.0439C52.0582 30.0271 52.0604 30.0102 52.0659 29.9943C52.0713 29.9783 52.0798 29.9637 52.091 29.9514C52.1021 29.939 52.1155 29.9292 52.1305 29.9225C52.1455 29.9158 52.1616 29.9123 52.1779 29.9124H54.6924C54.7239 29.9124 54.754 29.9253 54.7762 29.9483C54.7985 29.9714 54.811 30.0026 54.811 30.0352C54.8126 30.2681 54.8836 30.4947 55.0141 30.6843C55.1162 30.8315 55.2423 30.9591 55.3867 31.0615C55.5718 31.1934 55.7887 31.2693 56.0132 31.2808C56.2403 31.2926 56.4668 31.2475 56.6735 31.1492C56.8099 31.0941 56.9338 31.0105 57.0376 30.9036C57.1203 30.8173 57.1915 30.72 57.2493 30.6141C57.293 30.5295 57.3217 30.4374 57.3339 30.3422C57.3552 30.1998 57.3552 30.0548 57.3339 29.9124C57.3211 29.8145 57.2925 29.7196 57.2493 29.6317C57.1942 29.524 57.1227 29.4262 57.0376 29.3422C56.9301 29.2378 56.8072 29.1519 56.6735 29.0878L56.301 28.9387L55.8777 28.7896L55.0311 28.4913C54.7349 28.3725 54.4512 28.2226 54.1844 28.0439C53.8178 27.8162 53.496 27.5185 53.2362 27.1668C52.7271 26.4522 52.4891 25.5688 52.5674 24.6843C52.6057 24.2339 52.7294 23.7957 52.9314 23.3948C53.1158 23.0274 53.3591 22.6952 53.6511 22.4124C53.9323 22.1393 54.2557 21.9169 54.6078 21.7545C54.9675 21.5926 55.3511 21.4947 55.7422 21.465C56.1575 21.4316 56.5753 21.4702 56.9783 21.579C57.3681 21.6723 57.7401 21.8324 58.079 22.0527C58.4002 22.2636 58.6861 22.5273 58.9256 22.8334C59.1453 23.1269 59.3169 23.4559 59.4336 23.8071C59.5472 24.1461 59.6101 24.5011 59.6198 24.8597C59.621 24.8766 59.6188 24.8935 59.6134 24.9094C59.6079 24.9254 59.5994 24.94 59.5883 24.9523C59.5771 24.9647 59.5637 24.9745 59.5487 24.9812C59.5338 24.9879 59.5176 24.9914 59.5013 24.9913H57.0461C57.0174 24.9916 56.9895 24.9811 56.9677 24.9618C56.9459 24.9424 56.9316 24.9155 56.9275 24.8861C56.9247 24.8021 56.9024 24.72 56.8626 24.6467C56.8229 24.5735 56.7667 24.5112 56.6989 24.465C56.575 24.383 56.4412 24.3182 56.301 24.272H56.1656C56.076 24.2556 55.9843 24.2556 55.8946 24.272C55.7847 24.291 55.6787 24.3296 55.5814 24.3861C55.47 24.4532 55.3813 24.5543 55.3274 24.6755C55.2424 24.8461 55.2242 25.044 55.2766 25.2282C55.3259 25.4161 55.4404 25.5786 55.5983 25.6843C55.7586 25.7766 55.9256 25.8558 56.0978 25.9211L56.6735 26.1317L57.2239 26.3159C57.4101 26.3802 57.5992 26.4562 57.7911 26.544C58.4576 26.8474 59.0251 27.3444 59.4247 27.9748C59.8244 28.6053 60.0392 29.3423 60.0432 30.0966C60.0483 30.8567 59.8362 31.6015 59.4336 32.2369C58.855 33.1381 57.9582 33.7681 56.936 33.9913C56.6434 34.0522 56.3455 34.0816 56.047 34.079Z" fill="white"/>
<path d="M92.2327 27.0264C92.2379 27.7007 92.1111 28.3691 91.8601 28.9913C91.6155 29.5931 91.262 30.141 90.8188 30.6053C90.374 31.0714 89.8484 31.4464 89.2694 31.7106C88.7112 31.9675 88.1104 32.1105 87.5 32.1316C87.4844 32.1316 87.469 32.1348 87.4546 32.141C87.4402 32.1472 87.4272 32.1562 87.4161 32.1676C87.4051 32.179 87.3964 32.1925 87.3905 32.2074C87.3845 32.2223 87.3814 32.2383 87.3814 32.2544V33.9562C87.3814 33.9888 87.3689 34.02 87.3467 34.043C87.3245 34.0661 87.2943 34.079 87.2629 34.079H84.7992C84.7678 34.079 84.7376 34.0661 84.7154 34.043C84.6932 34.02 84.6807 33.9888 84.6807 33.9562V22.0264C84.6807 21.9938 84.6932 21.9626 84.7154 21.9395C84.7376 21.9165 84.7678 21.9036 84.7992 21.9036H87.373C88.0242 21.9097 88.6672 22.0561 89.261 22.3334C89.8392 22.6027 90.3645 22.9804 90.8103 23.4474C91.2535 23.9117 91.607 24.4596 91.8517 25.0615C92.1056 25.683 92.2352 26.3514 92.2327 27.0264ZM87.373 29.2194C87.3729 29.2362 87.3762 29.253 87.3827 29.2685C87.3892 29.284 87.3987 29.2979 87.4106 29.3094C87.4225 29.321 87.4366 29.3298 87.452 29.3355C87.4674 29.3411 87.4837 29.3434 87.5 29.3422C87.7466 29.3187 87.9874 29.2504 88.2111 29.1404C88.4642 29.0175 88.6937 28.8481 88.8884 28.6404C89.084 28.4299 89.2391 28.1828 89.3456 27.9123C89.5668 27.35 89.5668 26.7203 89.3456 26.158C89.2389 25.8876 89.0838 25.6405 88.8884 25.4299C88.6937 25.2222 88.4642 25.0527 88.2111 24.9299C87.9873 24.82 87.7466 24.7517 87.5 24.7281C87.4698 24.7256 87.4399 24.7351 87.4163 24.7546C87.3927 24.7742 87.3772 24.8024 87.373 24.8334V29.2194Z" fill="white"/>
<path d="M76.2901 21.8946C77.0761 21.8901 77.8544 22.0544 78.576 22.3771C79.2727 22.6846 79.9074 23.125 80.4471 23.6753C80.9827 24.2293 81.4109 24.8843 81.7086 25.6051C82.0148 26.356 82.1726 27.1628 82.1726 27.978C82.1726 28.7931 82.0148 29.5999 81.7086 30.3508C81.4109 31.0716 80.9827 31.7267 80.4471 32.2806C79.9097 32.8405 79.2748 33.29 78.576 33.6051C77.8528 33.9222 77.0755 34.0855 76.2901 34.0855C75.5048 34.0855 74.7275 33.9222 74.0042 33.6051C72.5993 32.9865 71.4819 31.8256 70.8886 30.3683C70.5847 29.6168 70.4282 28.8102 70.4282 27.9955C70.4282 27.1808 70.5847 26.3741 70.8886 25.6227C71.4819 24.1654 72.5993 23.0045 74.0042 22.3858C74.7252 22.0602 75.5036 21.8929 76.2901 21.8946ZM76.2901 31.2718C76.7147 31.2761 77.1355 31.1895 77.5262 31.0174C78.289 30.6825 78.8962 30.0534 79.2195 29.263C79.3832 28.8589 79.4675 28.425 79.4675 27.9867C79.4675 27.5484 79.3832 27.1146 79.2195 26.7104C78.8962 25.9201 78.289 25.291 77.5262 24.956C77.1362 24.7864 76.7174 24.6991 76.2944 24.6991C75.8713 24.6991 75.4526 24.7864 75.0625 24.956C74.2997 25.291 73.6925 25.9201 73.3692 26.7104C73.2055 27.1146 73.1212 27.5484 73.1212 27.9867C73.1212 28.425 73.2055 28.8589 73.3692 29.263C73.6925 30.0534 74.2997 30.6825 75.0625 31.0174C75.4532 31.1895 75.874 31.2761 76.2986 31.2718H76.2901Z" fill="white"/>
<path d="M66.7995 24.5701H64.3104C64.245 24.5701 64.1919 24.6251 64.1919 24.6929V33.956C64.1919 34.0239 64.245 34.0788 64.3104 34.0788H66.7995C66.865 34.0788 66.9181 34.0239 66.9181 33.956V24.6929C66.9181 24.6251 66.865 24.5701 66.7995 24.5701Z" fill="white"/>
<path d="M69.0346 21.8948H62.0668C62.0013 21.8948 61.9482 21.9498 61.9482 22.0176V24.5965C61.9482 24.6644 62.0013 24.7193 62.0668 24.7193H69.0346C69.1 24.7193 69.1531 24.6644 69.1531 24.5965V22.0176C69.1531 21.9498 69.1 21.8948 69.0346 21.8948Z" fill="white"/>
</g>
<defs>
<clipPath id="clip0_991_5786">
<rect width="96" height="18" fill="white" transform="translate(0 19)"/>
</clipPath>
</defs>
</svg>
