<svg width="96" height="56" viewBox="0 0 96 56" fill="none" xmlns="http://www.w3.org/2000/svg">
<path d="M15.1154 34.4293C18.7056 34.4293 21.6161 31.4787 21.6161 27.8388C21.6161 24.199 18.7056 21.2483 15.1154 21.2483C11.5252 21.2483 8.61475 24.199 8.61475 27.8388C8.61475 31.4787 11.5252 34.4293 15.1154 34.4293Z" fill="#ffffff"/>
<path d="M15.1155 19.4919L18.0718 16.4947V12.9014H12.1592V16.4947L15.1155 19.4919Z" fill="#ffffff"/>
<path d="M10.9989 20.6198L12.0797 16.5108L10.2995 13.3848L5.18164 16.398L6.96177 19.508L10.9989 20.6198Z" fill="#ffffff"/>
<path d="M7.97893 23.6655L6.89813 19.5726L3.81469 17.7678L0.858398 22.9564L3.95774 24.7612L7.97893 23.6655Z" fill="#ffffff"/>
<path d="M6.88228 27.8387L3.92599 24.8416H0.365723V30.8359H3.92599L6.88228 27.8387Z" fill="#ffffff"/>
<path d="M7.97893 32.0122L3.95774 30.9165L0.858398 32.7212L3.81469 37.9099L6.89813 36.1051L7.97893 32.0122Z" fill="#ffffff"/>
<path d="M10.983 35.074L6.96177 36.1697L5.18164 39.2958L10.2995 42.2768L12.0797 39.1508L10.983 35.074Z" fill="#ffffff"/>
<path d="M15.1155 36.1858L12.1592 39.1829V42.7924H18.0718V39.1829L15.1155 36.1858Z" fill="#ffffff"/>
<path d="M19.2322 35.074L18.1514 39.1508L19.9315 42.2768L25.0494 39.2958L23.2692 36.1697L19.2322 35.074Z" fill="#ffffff"/>
<path d="M22.2358 32.0122L23.3166 36.1051L26.4001 37.9099L29.3723 32.7212L26.2888 30.9165L22.2358 32.0122Z" fill="#ffffff"/>
<path d="M23.3486 27.8387L26.3049 30.8359H29.8493V24.8416H26.3049L23.3486 27.8387Z" fill="#ffffff"/>
<path d="M22.2358 23.6655L26.2888 24.7612L29.3723 22.9564L26.4001 17.7678L23.3325 19.5726L22.2358 23.6655Z" fill="#ffffff"/>
<path d="M19.2322 20.6198L23.2692 19.5241L25.0494 16.398L19.9315 13.3848L18.1514 16.5108L19.2322 20.6198Z" fill="#ffffff"/>
<path d="M40.0848 16.4626C42.6756 16.4626 43.963 17.7517 43.963 17.7517L42.7074 20.0882C42.7074 20.0882 41.8014 19.1698 40.3074 19.1698C38.4319 19.1698 37.6848 20.3299 37.6848 21.6352C37.6848 23.1821 38.6862 24.2778 40.212 24.2778C41.1497 24.2778 41.8809 23.7783 41.9603 23.6494V23.1982H40.6888V21.0228H44.4398V26.7271H42.0398V26.292C42.0398 26.1309 42.0557 26.002 42.0716 25.9698H42.008C41.8809 26.147 41.0862 26.9044 39.4809 26.9044C36.7789 26.9044 34.5537 24.8579 34.5537 21.6996C34.6014 18.7347 36.763 16.4626 40.0848 16.4626Z" fill="white"/>
<path d="M56.7893 16.8333H61.033C63.1787 16.8333 64.641 18.0096 64.641 20.0882C64.641 21.2323 64.0688 22.2958 63.1469 22.8598V22.892C63.1787 22.9404 63.3695 23.1982 63.5761 23.5688L65.2926 26.7432H62.082L60.5562 23.6333H59.7297V26.7432H56.7734V16.8333H56.7893ZM60.6198 21.329C61.2873 21.329 61.6529 20.9261 61.6529 20.2816C61.6529 19.6532 61.3986 19.2503 60.5085 19.2503H59.7297V21.3129L60.6198 21.329Z" fill="white"/>
<path d="M66.0239 16.8333H69.9974C73.0173 16.8333 74.9405 18.638 74.9405 21.7641C74.9405 24.8901 73.0173 26.7432 69.9974 26.7432H66.0239V16.8333ZM69.8067 24.2939C71.1259 24.2939 71.9047 23.4399 71.9047 21.7641C71.9047 20.1043 71.0782 19.2664 69.8067 19.2664H68.9802V24.2939H69.8067Z" fill="white"/>
<path d="M87.2425 16.8333H90.0557L92.4716 20.8939C92.8689 21.5707 93.1709 22.4086 93.1709 22.4086H93.2186C93.2186 22.4086 93.1074 21.5224 93.1074 20.8939V16.8333H95.9524V26.7432H93.0915L90.6597 22.4892C90.31 21.893 89.9603 20.9906 89.9603 20.9906H89.9127C89.9127 20.9906 90.0239 21.8607 90.0239 22.4892V26.7432H87.2266V16.8333H87.2425Z" fill="white"/>
<path d="M35.3484 29.0151H38.5749L39.7987 33.0113C39.9894 33.6398 40.196 34.6066 40.196 34.6066H40.2437C40.2437 34.6066 40.4503 33.6559 40.6411 33.0113L41.8649 29.0151H45.0755L45.7907 38.9251H43.0411L42.7709 34.8C42.7232 34.0587 42.7709 33.2047 42.7709 33.2047H42.7232C42.7232 33.2047 42.4848 34.1715 42.2782 34.8L41.3881 37.6199H39.0358L38.1298 34.8C37.9391 34.1715 37.6848 33.2047 37.6848 33.2047H37.6371C37.6371 33.2047 37.6689 34.0426 37.6212 34.8L37.3669 38.9251H34.5854L35.3484 29.0151Z" fill="white"/>
<path d="M51.7669 28.7734C54.9775 28.7734 57.1232 30.9971 57.1232 33.9298C57.1232 36.9431 54.9775 39.2151 51.7669 39.2151C48.5563 39.2151 46.4106 36.9431 46.4106 33.9298C46.4106 30.9971 48.5563 28.7734 51.7669 28.7734ZM51.7669 36.5241C53.0702 36.5241 54.0239 35.4768 54.0239 33.9459C54.0239 32.4796 53.0861 31.4805 51.7669 31.4805C50.4477 31.4805 49.51 32.4796 49.51 33.9459C49.51 35.4768 50.4636 36.5241 51.7669 36.5241Z" fill="white"/>
<path d="M50.5907 16.6399C53.8013 16.6399 55.947 18.8636 55.947 21.7963C55.947 24.8096 53.8013 27.0816 50.5907 27.0816C47.3801 27.0816 45.2344 24.8096 45.2344 21.7963C45.2503 18.8636 47.3801 16.6399 50.5907 16.6399ZM50.5907 24.3906C51.894 24.3906 52.8476 23.3432 52.8476 21.8124C52.8476 20.3461 51.9099 19.347 50.5907 19.347C49.2715 19.347 48.3337 20.3461 48.3337 21.8124C48.3337 23.3432 49.2874 24.3906 50.5907 24.3906Z" fill="white"/>
<path d="M80.9959 16.6399C84.2065 16.6399 86.3522 18.8636 86.3522 21.7963C86.3522 24.8096 84.2065 27.0816 80.9959 27.0816C77.7853 27.0816 75.6396 24.8096 75.6396 21.7963C75.6396 18.8636 77.7853 16.6399 80.9959 16.6399ZM80.9959 24.3906C82.2993 24.3906 83.2529 23.3432 83.2529 21.8124C83.2529 20.3461 82.3151 19.347 80.9959 19.347C79.6926 19.347 78.739 20.3461 78.739 21.8124C78.739 23.3432 79.6767 24.3906 80.9959 24.3906Z" fill="white"/>
<path d="M63.0516 28.7734C66.2622 28.7734 68.4079 30.9971 68.4079 33.9298C68.4079 36.9431 66.2622 39.2151 63.0516 39.2151C59.841 39.2151 57.6953 36.9431 57.6953 33.9298C57.6953 30.9971 59.8569 28.7734 63.0516 28.7734ZM63.0516 36.5241C64.3549 36.5241 65.3086 35.4768 65.3086 33.9459C65.3086 32.4796 64.3708 31.4805 63.0516 31.4805C61.7324 31.4805 60.7947 32.4796 60.7947 33.9459C60.7947 35.4768 61.7483 36.5241 63.0516 36.5241Z" fill="white"/>
<path d="M69.3936 29.0151H73.3671C76.3869 29.0151 78.3101 30.8199 78.3101 33.9459C78.3101 37.072 76.3869 38.9251 73.3671 38.9251H69.3936V29.0151ZM73.1763 36.4919C74.4955 36.4919 75.2743 35.6379 75.2743 33.9621C75.2743 32.3023 74.4479 31.4644 73.1763 31.4644H72.3498V36.4919H73.1763Z" fill="white"/>
<path d="M80.9164 35.0094L77.6899 29.0312H80.8529L81.7906 31.0777C82.0608 31.7061 82.3469 32.5763 82.3469 32.5763H82.3946C82.3946 32.5763 82.6807 31.7061 82.9668 31.0777L83.8886 29.0312H87.0674L83.8886 35.0094V38.9251H80.9323L80.9164 35.0094Z" fill="white"/>
</svg>
